<svg width="130" height="130" viewBox="0 0 130 130" fill="none" xmlns="http://www.w3.org/2000/svg">
<g filter="url(#filter0_i_116_5061)">
<g clip-path="url(#clip0_116_5061)">
<rect width="130" height="130" rx="65" fill="white"/>
<path d="M254.075 113.666H-26V113.806H254.075V113.666Z" fill="#EBEBEB"/>
<path d="M27.5781 118.422H3.38525V118.562H27.5781V118.422Z" fill="#EBEBEB"/>
<path d="M36.1151 118.422H32.5693V118.562H36.1151V118.422Z" fill="#EBEBEB"/>
<path d="M100.118 120.785H47.6431V120.925H100.118V120.785Z" fill="#EBEBEB"/>
<path d="M106.756 88.6831H-1.40382C-2.25114 88.6816 -3.06324 88.344 -3.66185 87.7444C-4.26047 87.1447 -4.59668 86.332 -4.59668 85.4847V-66.5568C-4.5893 -67.3993 -4.24984 -68.2048 -3.65202 -68.7984C-3.0542 -69.3921 -2.24631 -69.7259 -1.40382 -69.7273H106.756C107.604 -69.7273 108.417 -69.3903 109.017 -68.7905C109.617 -68.1907 109.954 -67.3771 109.954 -66.5288V85.4847C109.954 86.333 109.617 87.1465 109.017 87.7463C108.417 88.3462 107.604 88.6831 106.756 88.6831ZM-1.40382 -69.6153C-2.214 -69.6138 -2.99048 -69.2909 -3.56283 -68.7175C-4.13519 -68.1441 -4.45664 -67.367 -4.45664 -66.5568V85.4847C-4.45664 86.2948 -4.13519 87.0719 -3.56283 87.6453C-2.99048 88.2187 -2.214 88.5416 -1.40382 88.5431H106.756C107.566 88.5416 108.343 88.2189 108.917 87.6457C109.49 87.0724 109.812 86.2954 109.814 85.4847V-66.5568C109.812 -67.3675 109.49 -68.1446 108.917 -68.7178C108.343 -69.2911 107.566 -69.6138 106.756 -69.6153H-1.40382Z" fill="#EBEBEB"/>
<path d="M227.922 88.6831H119.757C118.909 88.6816 118.096 88.3442 117.497 87.7447C116.897 87.1452 116.56 86.3325 116.558 85.4847V-66.5568C116.567 -67.3998 116.908 -68.2053 117.506 -68.7988C118.105 -69.3923 118.914 -69.7259 119.757 -69.7273H227.922C228.763 -69.7244 229.569 -69.3899 230.166 -68.7965C230.763 -68.203 231.101 -67.3983 231.109 -66.5568V85.4847C231.109 86.331 230.773 87.1429 230.176 87.7424C229.579 88.3419 228.768 88.6802 227.922 88.6831ZM119.757 -69.6153C118.946 -69.6138 118.169 -69.2911 117.596 -68.7178C117.022 -68.1446 116.7 -67.3675 116.698 -66.5568V85.4847C116.7 86.2954 117.022 87.0724 117.596 87.6457C118.169 88.2189 118.946 88.5416 119.757 88.5431H227.922C228.732 88.5416 229.509 88.2189 230.083 87.6457C230.656 87.0724 230.978 86.2954 230.98 85.4847V-66.5568C230.978 -67.3675 230.656 -68.1446 230.083 -68.7178C229.509 -69.2911 228.732 -69.6138 227.922 -69.6153H119.757Z" fill="#EBEBEB"/>
<path d="M61.6747 63.3195L53.9166 69.8061L64.9683 85.8712L73.7963 80.9419C78.5284 85.4866 84.0757 89.0975 90.1471 91.5847L89.2508 101.628L108.436 105.163L111.186 95.4609C117.736 95.3114 124.198 93.9239 130.231 91.3718L136.718 99.1299L152.783 88.0782L147.865 79.2726C152.411 74.5435 156.022 68.9978 158.508 62.9274L168.546 63.8237L172.091 44.6497L162.39 41.8938C162.236 35.3448 160.849 28.8835 158.301 22.8487L166.059 16.3622L155.007 0.302652L146.173 5.22637C141.443 0.682053 135.898 -2.92875 129.828 -5.41648L130.724 -15.46L111.55 -19.0001L108.8 -9.30393C102.251 -9.14821 95.7905 -7.76102 89.755 -5.21483L83.2292 -13.0065L67.1753 -1.94915L72.099 6.87881C67.5547 11.6112 63.9439 17.1585 61.4562 23.2296L51.4127 22.3334L47.8726 41.5073L57.5688 44.2576C57.7243 50.8135 59.1174 57.2809 61.6747 63.3195ZM84.0302 38.264C84.9791 33.1307 87.4289 28.394 91.0698 24.653C94.7107 20.9119 99.3792 18.3346 104.485 17.2468C109.591 16.159 114.904 16.6097 119.754 18.5418C124.603 20.4739 128.771 23.8007 131.73 28.1015C134.689 32.4023 136.306 37.4839 136.377 42.7037C136.447 47.9235 134.969 53.0471 132.128 57.4266C129.287 61.806 125.211 65.2446 120.415 67.3076C115.62 69.3705 110.32 69.9651 105.187 69.0163C98.3035 67.7438 92.2074 63.789 88.2397 58.0219C84.272 52.2547 82.7578 45.1476 84.0302 38.264Z" fill="#F0F0F0"/>
<path d="M20.8846 70.6687L25.5002 71.5257L26.1668 69.1899C27.744 69.1498 29.2999 68.8154 30.7544 68.204L32.3172 70.0693L36.1879 67.4086L35.0003 65.2688C36.0928 64.1345 36.9613 62.8042 37.5602 61.3478L39.9801 61.5606L40.8315 56.945L38.4957 56.3064C38.4609 54.7267 38.1264 53.168 37.5098 51.7132L39.3807 50.1504L36.7144 46.2853L34.5914 47.4729C33.4559 46.3805 32.126 45.5104 30.6704 44.9074L30.8888 42.4931L26.2676 41.6361L25.6066 43.9719C24.0276 44.0122 22.4699 44.3465 21.0134 44.9578L19.4562 43.0925L15.5855 45.7532L16.7731 47.8818C15.6801 49.0157 14.8115 50.3461 14.2132 51.8028L11.7933 51.59L10.9419 56.2056L13.2609 56.8666C13.2957 58.4463 13.6302 60.005 14.2468 61.4598L12.3759 63.0282L15.0366 66.8933L17.1652 65.7114C18.3014 66.8014 19.6312 67.6695 21.0862 68.2712L20.8846 70.6687ZM19.6298 55.4158C19.859 54.1808 20.4491 53.0414 21.3257 52.1417C22.2023 51.242 23.3259 50.6224 24.5546 50.3613C25.7832 50.1001 27.0618 50.2091 28.2285 50.6744C29.3952 51.1397 30.3978 51.9405 31.1095 52.9756C31.8212 54.0106 32.21 55.2334 32.2269 56.4894C32.2437 57.7454 31.8878 58.9782 31.2041 60.0319C30.5204 61.0857 29.5396 61.9131 28.3858 62.4095C27.2319 62.9059 25.9568 63.0491 24.7216 62.821C23.0648 62.5135 21.5978 61.5607 20.6431 60.1722C19.6883 58.7837 19.3239 57.0729 19.6298 55.4158Z" fill="#F0F0F0"/>
<path d="M37.2074 97.8023C38.1037 98.0712 38.5182 98.6369 38.5182 99.9869V103.107C38.492 103.301 38.5106 103.498 38.5725 103.684C38.6344 103.87 38.738 104.039 38.8753 104.178C39.0126 104.318 39.1801 104.424 39.3648 104.489C39.5495 104.554 39.7466 104.575 39.941 104.552H40.2938V106.933H39.1735C36.7313 106.933 35.4822 105.684 35.4822 103.437V99.9085C35.4822 99.2811 35.1517 98.9898 34.6251 98.9898H33.981V96.6372H34.6251C35.1517 96.6372 35.4822 96.3459 35.4822 95.7185V92.156C35.4822 89.9154 36.7313 88.6663 39.1735 88.6663H40.2938V91.0357H39.941C39.7466 91.0126 39.5495 91.0342 39.3648 91.099C39.1801 91.1638 39.0126 91.27 38.8753 91.4095C38.738 91.549 38.6344 91.7181 38.5725 91.9038C38.5106 92.0895 38.492 92.2869 38.5182 92.4809V95.6009C38.5182 96.9621 38.1037 97.5278 37.2074 97.8023Z" fill="#E0E0E0"/>
<path d="M52.7347 96.6373V99.0179H52.0906C51.9697 99.0072 51.8479 99.0241 51.7345 99.0673C51.6211 99.1106 51.519 99.179 51.4359 99.2675C51.3528 99.356 51.2909 99.4622 51.2549 99.5781C51.2188 99.694 51.2096 99.8166 51.2279 99.9366V103.466C51.2279 105.706 49.9788 106.961 47.5421 106.961H46.4218V104.58H46.7747C46.9691 104.603 47.1662 104.582 47.3509 104.517C47.5356 104.452 47.7031 104.346 47.8404 104.206C47.9777 104.067 48.0813 103.898 48.1432 103.712C48.2051 103.526 48.2237 103.329 48.1975 103.135V99.9982C48.1975 98.6482 48.6064 98.0825 49.5027 97.8136C48.6064 97.5391 48.1975 96.9734 48.1975 95.6234V92.4922C48.226 92.2963 48.2087 92.0965 48.147 91.9084C48.0853 91.7203 47.981 91.549 47.8421 91.408C47.7032 91.2669 47.5336 91.1599 47.3465 91.0953C47.1594 91.0308 46.9598 91.0104 46.7635 91.0358H46.4106V88.6552H47.5309C49.9676 88.6552 51.2167 89.9043 51.2167 92.1449V95.6794C51.1984 95.7994 51.2076 95.922 51.2437 96.0379C51.2797 96.1538 51.3416 96.26 51.4247 96.3485C51.5077 96.437 51.6099 96.5054 51.7233 96.5487C51.8367 96.5919 51.9585 96.6088 52.0794 96.5981L52.7347 96.6373Z" fill="#E0E0E0"/>
<path d="M114.038 138.962C174.02 138.962 222.645 136.123 222.645 132.621C222.645 129.119 174.02 126.28 114.038 126.28C54.0554 126.28 5.43018 129.119 5.43018 132.621C5.43018 136.123 54.0554 138.962 114.038 138.962Z" fill="#F5F5F5"/>
<path d="M125.834 -40.0505H57.2104V9.62357H125.834V-40.0505Z" fill="black"/>
<path opacity="0.9" d="M125.834 -40.0505H57.2104V9.62357H125.834V-40.0505Z" fill="white"/>
<path opacity="0.1" d="M66.7666 -40.0505H57.2104V9.62357H66.7666V-40.0505Z" fill="black"/>
<g opacity="0.2">
<path d="M94.0345 0.851501H73.9308C73.7822 0.851501 73.6397 0.792486 73.5347 0.687437C73.4296 0.582389 73.3706 0.439912 73.3706 0.291351C73.3706 0.14279 73.4296 0.000313371 73.5347 -0.104735C73.6397 -0.209784 73.7822 -0.268799 73.9308 -0.268799H94.0345C94.1831 -0.268799 94.3256 -0.209784 94.4306 -0.104735C94.5357 0.000313371 94.5947 0.14279 94.5947 0.291351C94.5947 0.439912 94.5357 0.582389 94.4306 0.687437C94.3256 0.792486 94.1831 0.851501 94.0345 0.851501Z" fill="black"/>
</g>
<g opacity="0.2">
<path d="M62.1563 0.851501C62.0078 0.851501 61.8653 0.792486 61.7603 0.687437C61.6552 0.582389 61.5962 0.439912 61.5962 0.291351C61.5962 0.14279 61.6552 0.000313371 61.7603 -0.104735C61.8653 -0.209784 62.0078 -0.268799 62.1563 -0.268799C62.3049 -0.268799 62.4474 -0.209784 62.5524 -0.104735C62.6575 0.000313371 62.7165 0.14279 62.7165 0.291351C62.7165 0.439912 62.6575 0.582389 62.5524 0.687437C62.4474 0.792486 62.3049 0.851501 62.1563 0.851501Z" fill="black"/>
</g>
<path d="M187.989 0.481934H98.0679V58.0598H187.989V0.481934Z" fill="#263238"/>
<path opacity="0.9" d="M187.989 0.481934H98.0679V58.0598H187.989V0.481934Z" fill="white"/>
<path opacity="0.1" d="M112.094 0.481934H98.0679V58.0598H112.094V0.481934Z" fill="black"/>
<path d="M187.989 0.481934H98.0679V5.12558H187.989V0.481934Z" fill="#407BFF"/>
<path d="M104.42 10.2173L102.93 10.7774L104.42 11.3376V11.8977L102.292 11.0855V10.5254L104.42 9.71875V10.2173Z" fill="white"/>
<path d="M106.028 8.55933H106.649L105.171 12.7773H104.549L106.028 8.55933Z" fill="white"/>
<path d="M108.862 10.4694V11.0296L106.733 11.8418V11.2816L108.223 10.7215L106.733 10.1613V9.6012L108.862 10.4694Z" fill="white"/>
<g opacity="0.2">
<path d="M108.548 16.6198H102.454C102.305 16.6198 102.163 16.5608 102.058 16.4557C101.953 16.3507 101.894 16.2082 101.894 16.0597C101.894 15.9111 101.953 15.7686 102.058 15.6636C102.163 15.5585 102.305 15.4995 102.454 15.4995H108.548C108.697 15.4995 108.839 15.5585 108.944 15.6636C109.049 15.7686 109.108 15.9111 109.108 16.0597C109.108 16.2082 109.049 16.3507 108.944 16.4557C108.839 16.5608 108.697 16.6198 108.548 16.6198Z" fill="black"/>
<path d="M108.548 20.272H102.454C102.305 20.272 102.163 20.213 102.058 20.108C101.953 20.0029 101.894 19.8604 101.894 19.7119C101.894 19.5633 101.953 19.4208 102.058 19.3158C102.163 19.2107 102.305 19.1517 102.454 19.1517H108.548C108.697 19.1517 108.839 19.2107 108.944 19.3158C109.049 19.4208 109.108 19.5633 109.108 19.7119C109.108 19.8604 109.049 20.0029 108.944 20.108C108.839 20.213 108.697 20.272 108.548 20.272Z" fill="black"/>
<path d="M108.548 23.9297H102.454C102.305 23.9297 102.163 23.8707 102.058 23.7657C101.953 23.6606 101.894 23.5182 101.894 23.3696C101.894 23.221 101.953 23.0786 102.058 22.9735C102.163 22.8685 102.305 22.8094 102.454 22.8094H108.548C108.697 22.8094 108.839 22.8685 108.944 22.9735C109.049 23.0786 109.108 23.221 109.108 23.3696C109.108 23.5182 109.049 23.6606 108.944 23.7657C108.839 23.8707 108.697 23.9297 108.548 23.9297Z" fill="black"/>
<path d="M108.548 27.5876H102.454C102.305 27.5876 102.163 27.5286 102.058 27.4235C101.953 27.3185 101.894 27.176 101.894 27.0274C101.894 26.8789 101.953 26.7364 102.058 26.6313C102.163 26.5263 102.305 26.4673 102.454 26.4673H108.548C108.697 26.4673 108.839 26.5263 108.944 26.6313C109.049 26.7364 109.108 26.8789 109.108 27.0274C109.108 27.176 109.049 27.3185 108.944 27.4235C108.839 27.5286 108.697 27.5876 108.548 27.5876Z" fill="black"/>
<path d="M108.548 31.2453H102.454C102.305 31.2453 102.163 31.1863 102.058 31.0812C101.953 30.9762 101.894 30.8337 101.894 30.6851C101.894 30.5366 101.953 30.3941 102.058 30.2891C102.163 30.184 102.305 30.125 102.454 30.125H108.548C108.697 30.125 108.839 30.184 108.944 30.2891C109.049 30.3941 109.108 30.5366 109.108 30.6851C109.108 30.8337 109.049 30.9762 108.944 31.0812C108.839 31.1863 108.697 31.2453 108.548 31.2453Z" fill="black"/>
<path d="M108.548 34.8975H102.454C102.305 34.8975 102.163 34.8385 102.058 34.7335C101.953 34.6284 101.894 34.4859 101.894 34.3374C101.894 34.1888 101.953 34.0463 102.058 33.9413C102.163 33.8362 102.305 33.7772 102.454 33.7772H108.548C108.697 33.7772 108.839 33.8362 108.944 33.9413C109.049 34.0463 109.108 34.1888 109.108 34.3374C109.108 34.4859 109.049 34.6284 108.944 34.7335C108.839 34.8385 108.697 34.8975 108.548 34.8975Z" fill="black"/>
<path d="M108.548 38.5552H102.454C102.305 38.5552 102.163 38.4962 102.058 38.3912C101.953 38.2861 101.894 38.1436 101.894 37.9951C101.894 37.8465 101.953 37.704 102.058 37.599C102.163 37.494 102.305 37.4349 102.454 37.4349H108.548C108.697 37.4349 108.839 37.494 108.944 37.599C109.049 37.704 109.108 37.8465 109.108 37.9951C109.108 38.1436 109.049 38.2861 108.944 38.3912C108.839 38.4962 108.697 38.5552 108.548 38.5552Z" fill="black"/>
<path d="M108.548 42.2131H102.454C102.305 42.2131 102.163 42.1541 102.058 42.049C101.953 41.944 101.894 41.8015 101.894 41.6529C101.894 41.5044 101.953 41.3619 102.058 41.2568C102.163 41.1518 102.305 41.0928 102.454 41.0928H108.548C108.697 41.0928 108.839 41.1518 108.944 41.2568C109.049 41.3619 109.108 41.5044 109.108 41.6529C109.108 41.8015 109.049 41.944 108.944 42.049C108.839 42.1541 108.697 42.2131 108.548 42.2131Z" fill="black"/>
<path d="M108.548 45.8708H102.454C102.305 45.8708 102.163 45.8118 102.058 45.7067C101.953 45.6017 101.894 45.4592 101.894 45.3106C101.894 45.1621 101.953 45.0196 102.058 44.9146C102.163 44.8095 102.305 44.7505 102.454 44.7505H108.548C108.697 44.7505 108.839 44.8095 108.944 44.9146C109.049 45.0196 109.108 45.1621 109.108 45.3106C109.108 45.4592 109.049 45.6017 108.944 45.7067C108.839 45.8118 108.697 45.8708 108.548 45.8708Z" fill="black"/>
</g>
<path d="M126.165 16.6198H113.668C113.519 16.6198 113.377 16.5608 113.272 16.4557C113.167 16.3507 113.108 16.2082 113.108 16.0597C113.108 15.9111 113.167 15.7686 113.272 15.6636C113.377 15.5585 113.519 15.4995 113.668 15.4995H126.165C126.314 15.4995 126.456 15.5585 126.561 15.6636C126.666 15.7686 126.725 15.9111 126.725 16.0597C126.725 16.2082 126.666 16.3507 126.561 16.4557C126.456 16.5608 126.314 16.6198 126.165 16.6198Z" fill="#407BFF"/>
<path d="M162.065 16.6198H129.492C129.344 16.6198 129.201 16.5608 129.096 16.4557C128.991 16.3507 128.932 16.2082 128.932 16.0597C128.932 15.9111 128.991 15.7686 129.096 15.6636C129.201 15.5585 129.344 15.4995 129.492 15.4995H162.065C162.214 15.4995 162.356 15.5585 162.461 15.6636C162.566 15.7686 162.625 15.9111 162.625 16.0597C162.625 16.2082 162.566 16.3507 162.461 16.4557C162.356 16.5608 162.214 16.6198 162.065 16.6198Z" fill="#263238"/>
<g opacity="0.2">
<path d="M147.994 20.2719H115.348C115.2 20.2719 115.057 20.2129 114.952 20.1078C114.847 20.0028 114.788 19.8603 114.788 19.7118C114.788 19.5632 114.847 19.4207 114.952 19.3157C115.057 19.2106 115.2 19.1516 115.348 19.1516H147.994C148.142 19.1516 148.285 19.2106 148.39 19.3157C148.495 19.4207 148.554 19.5632 148.554 19.7118C148.554 19.8603 148.495 20.0028 148.39 20.1078C148.285 20.2129 148.142 20.2719 147.994 20.2719Z" fill="#263238"/>
</g>
<path d="M134.696 23.9297H115.348C115.2 23.9297 115.057 23.8707 114.952 23.7657C114.847 23.6606 114.788 23.5182 114.788 23.3696C114.788 23.221 114.847 23.0786 114.952 22.9735C115.057 22.8685 115.2 22.8094 115.348 22.8094H134.696C134.844 22.8094 134.987 22.8685 135.092 22.9735C135.197 23.0786 135.256 23.221 135.256 23.3696C135.256 23.5182 135.197 23.6606 135.092 23.7657C134.987 23.8707 134.844 23.9297 134.696 23.9297Z" fill="#263238"/>
<path d="M136.488 27.5876H124.877C124.728 27.5876 124.586 27.5286 124.48 27.4235C124.375 27.3185 124.316 27.176 124.316 27.0274C124.316 26.8789 124.375 26.7364 124.48 26.6313C124.586 26.5263 124.728 26.4673 124.877 26.4673H136.488C136.637 26.4673 136.78 26.5263 136.885 26.6313C136.99 26.7364 137.049 26.8789 137.049 27.0274C137.049 27.176 136.99 27.3185 136.885 27.4235C136.78 27.5286 136.637 27.5876 136.488 27.5876Z" fill="#263238"/>
<g opacity="0.2">
<path d="M130.971 31.2454H115.348C115.2 31.2454 115.057 31.1864 114.952 31.0814C114.847 30.9763 114.788 30.8338 114.788 30.6853C114.788 30.5367 114.847 30.3942 114.952 30.2892C115.057 30.1841 115.2 30.1251 115.348 30.1251H130.971C131.119 30.1251 131.262 30.1841 131.367 30.2892C131.472 30.3942 131.531 30.5367 131.531 30.6853C131.531 30.8338 131.472 30.9763 131.367 31.0814C131.262 31.1864 131.119 31.2454 130.971 31.2454Z" fill="#263238"/>
</g>
<path d="M132.926 34.8975H115.348C115.2 34.8975 115.057 34.8385 114.952 34.7335C114.847 34.6284 114.788 34.4859 114.788 34.3374C114.788 34.1888 114.847 34.0463 114.952 33.9413C115.057 33.8362 115.2 33.7772 115.348 33.7772H132.926C133.074 33.7772 133.217 33.8362 133.322 33.9413C133.427 34.0463 133.486 34.1888 133.486 34.3374C133.486 34.4859 133.427 34.6284 133.322 34.7335C133.217 34.8385 133.074 34.8975 132.926 34.8975Z" fill="#407BFF"/>
<g opacity="0.2">
<path d="M131.016 38.5554H120.933C120.785 38.5554 120.642 38.4963 120.537 38.3913C120.432 38.2862 120.373 38.1438 120.373 37.9952C120.373 37.8466 120.432 37.7042 120.537 37.5991C120.642 37.4941 120.785 37.4351 120.933 37.4351H131.016C131.164 37.4351 131.307 37.4941 131.412 37.5991C131.517 37.7042 131.576 37.8466 131.576 37.9952C131.576 38.1438 131.517 38.2862 131.412 38.3913C131.307 38.4963 131.164 38.5554 131.016 38.5554Z" fill="#263238"/>
</g>
<path d="M138.421 42.2131H126.557C126.409 42.2131 126.266 42.1541 126.161 42.049C126.056 41.944 125.997 41.8015 125.997 41.6529C125.997 41.5044 126.056 41.3619 126.161 41.2568C126.266 41.1518 126.409 41.0928 126.557 41.0928H138.421C138.57 41.0928 138.712 41.1518 138.817 41.2568C138.922 41.3619 138.981 41.5044 138.981 41.6529C138.981 41.8015 138.922 41.944 138.817 42.049C138.712 42.1541 138.57 42.2131 138.421 42.2131Z" fill="#263238"/>
<g opacity="0.2">
<path d="M141.059 45.8709H126.557C126.409 45.8709 126.266 45.8119 126.161 45.7069C126.056 45.6018 125.997 45.4593 125.997 45.3108C125.997 45.1622 126.056 45.0197 126.161 44.9147C126.266 44.8096 126.409 44.7506 126.557 44.7506H141.059C141.208 44.7506 141.351 44.8096 141.456 44.9147C141.561 45.0197 141.62 45.1622 141.62 45.3108C141.62 45.4593 141.561 45.6018 141.456 45.7069C141.351 45.8119 141.208 45.8709 141.059 45.8709Z" fill="#263238"/>
</g>
<path d="M37.4428 3.88758H21.3553C20.7045 3.88684 20.06 4.01438 19.4586 4.26289C18.8572 4.51141 18.3107 4.87603 17.8503 5.33592C17.3899 5.7958 17.0246 6.34193 16.7754 6.94307C16.5262 7.5442 16.398 8.18856 16.398 8.8393V22.843C16.3972 23.4938 16.5248 24.1383 16.7733 24.7397C17.0218 25.3411 17.3864 25.8877 17.8463 26.3481C18.3062 26.8085 18.8523 27.1737 19.4534 27.4229C20.0546 27.6721 20.6989 27.8004 21.3497 27.8004H32.7599L36.1208 32.22V27.8004H37.4372C38.7519 27.8004 40.0129 27.2781 40.9425 26.3484C41.8722 25.4187 42.3945 24.1578 42.3945 22.843V8.8393C42.3945 7.52602 41.8728 6.26653 40.9442 5.3379C40.0156 4.40927 38.7561 3.88758 37.4428 3.88758Z" fill="#407BFF"/>
<path opacity="0.7" d="M37.4428 3.88758H21.3553C20.7045 3.88684 20.06 4.01438 19.4586 4.26289C18.8572 4.51141 18.3107 4.87603 17.8503 5.33592C17.3899 5.7958 17.0246 6.34193 16.7754 6.94307C16.5262 7.5442 16.398 8.18856 16.398 8.8393V22.843C16.3972 23.4938 16.5248 24.1383 16.7733 24.7397C17.0218 25.3411 17.3864 25.8877 17.8463 26.3481C18.3062 26.8085 18.8523 27.1737 19.4534 27.4229C20.0546 27.6721 20.6989 27.8004 21.3497 27.8004H32.7599L36.1208 32.22V27.8004H37.4372C38.7519 27.8004 40.0129 27.2781 40.9425 26.3484C41.8722 25.4187 42.3945 24.1578 42.3945 22.843V8.8393C42.3945 7.52602 41.8728 6.26653 40.9442 5.3379C40.0156 4.40927 38.7561 3.88758 37.4428 3.88758Z" fill="white"/>
<path d="M28.5588 19.3365C28.4524 19.336 28.3474 19.3128 28.2508 19.2683C28.1542 19.2239 28.0682 19.1593 27.9986 19.0788L24.8674 15.4155C24.8049 15.3419 24.7574 15.2567 24.7278 15.1649C24.6982 15.073 24.687 14.9761 24.6948 14.8799C24.7026 14.7837 24.7293 14.6899 24.7733 14.604C24.8173 14.5181 24.8779 14.4417 24.9514 14.3792C25.025 14.3166 25.1101 14.2692 25.202 14.2396C25.2939 14.21 25.3907 14.1988 25.487 14.2066C25.5832 14.2144 25.6769 14.2411 25.7629 14.2851C25.8488 14.3291 25.9252 14.3896 25.9877 14.4632L28.5588 17.4992L32.8103 12.4915C32.9381 12.3506 33.1155 12.2647 33.3053 12.2521C33.4951 12.2395 33.6823 12.301 33.8276 12.4238C33.9729 12.5466 34.0648 12.7209 34.084 12.9101C34.1033 13.0994 34.0483 13.2887 33.9306 13.4381L29.1189 19.09C29.0488 19.169 28.9625 19.2319 28.8658 19.2745C28.7691 19.317 28.6644 19.3382 28.5588 19.3365Z" fill="white"/>
<path d="M35.0437 21.4265C38.1631 18.3071 38.1631 13.2495 35.0437 10.1301C31.9243 7.01073 26.8667 7.01073 23.7473 10.1301C20.6279 13.2495 20.6279 18.3071 23.7473 21.4265C26.8667 24.5459 31.9243 24.5459 35.0437 21.4265Z" fill="#407BFF"/>
<path d="M88.674 103.068L100.7 102.48L99.5297 112.938C99.5297 112.938 91.1835 114.528 87.4585 108.591L88.674 103.068Z" fill="#EBB376"/>
<path d="M108.453 106.126L105.714 113.711L99.5298 112.938L100.7 102.48L108.453 106.126Z" fill="#EBB376"/>
<path d="M77.1293 120.04C81.7088 117.649 85.8827 114.551 89.4974 110.859L88.674 103.068C77.3085 104.748 70.7492 107.151 70.7492 107.151C70.7492 107.151 74.9615 92.0552 71.1077 86.5546L60.5264 88.4703C60.5264 88.4703 49.2842 111.84 56.8463 120.04H77.1293Z" fill="#407BFF"/>
<path opacity="0.7" d="M77.1126 120.04C81.6945 117.65 85.872 114.554 89.4919 110.865L88.6741 103.062C77.6728 104.675 71.1694 106.983 70.7493 107.134C70.8893 106.574 74.872 91.9488 71.0966 86.549L60.5154 88.4647C58.3399 93.1572 56.6126 98.0448 55.3564 103.062C53.844 109.442 53.4015 116.315 56.8408 120.04H77.1126Z" fill="white"/>
<path opacity="0.2" d="M68.4133 120.04C72.1495 96.3683 68.839 90.3523 68.839 90.3523L55.3954 103.051C53.883 109.431 53.4405 116.304 56.8798 120.029L68.4133 120.04Z" fill="black"/>
<path d="M66.0774 120.04C68.5981 108.075 71.4268 89.3441 71.1187 86.5545C70.6706 82.499 48.6119 65.1232 29.466 77.7714C25.5449 80.3537 23.5452 108.21 22.8618 120.04H66.0774Z" fill="#407BFF"/>
<path opacity="0.7" d="M66.0774 120.04C68.5981 108.076 71.4268 89.3385 71.1187 86.5489C70.6706 82.4991 48.6063 65.1232 29.4604 77.777C28.0432 78.7236 26.8781 82.9976 25.9146 88.6439C24.6375 96.3292 23.7525 106.535 23.2259 114.232C23.0803 116.411 22.957 118.382 22.8618 120.04H66.0774Z" fill="white"/>
<path d="M56.6278 26.3664C49.99 23.6833 34.3394 33.3123 32.9671 50.4809C31.5947 67.6495 40.2994 62.8938 40.2994 62.8938C40.2994 62.8938 41.851 69.442 48.1919 67.4198C48.1919 67.4198 53.4293 73.3518 58.3026 70.9376C58.3026 70.9376 64.3691 77.2561 67.6235 73.9232C67.6235 73.9232 71.1637 77.9618 74.3958 74.9034C77.6278 71.845 86.8647 40.6222 72.3736 33.4019C57.8825 26.1816 56.6278 26.3664 56.6278 26.3664Z" fill="#263238"/>
<path d="M56.6392 96.6372L56.0007 96.5812C56.7401 88.3133 54.9196 84.6556 54.8804 84.622L55.4405 84.3251C55.5469 84.4539 57.3954 88.1341 56.6392 96.6372Z" fill="#263238"/>
<path d="M59.6413 96.7101C55.2441 86.3529 60.2014 83.9387 60.4031 83.8267L60.6664 84.3868C60.6215 84.3868 56.0955 86.6778 60.2294 96.4244L59.6413 96.7101Z" fill="#263238"/>
<path d="M55.3452 86.2969C55.3452 86.2969 46.8589 79.5751 33.6842 75.7885L29.4551 77.7714C29.4551 77.7714 22.3636 68.9939 34.1827 66.1203C46.0019 63.2467 62.0782 71.1616 66.1113 77.9394C70.1444 84.7173 59.0982 86.9018 59.0982 86.9018C59.0982 86.9018 58.0843 85.5239 55.3452 86.2969Z" fill="#407BFF"/>
<path opacity="0.6" d="M55.3452 86.2969C55.3452 86.2969 46.8589 79.5751 33.6842 75.7885L29.4551 77.7714C29.4551 77.7714 22.3636 68.9939 34.1827 66.1203C46.0019 63.2467 62.0782 71.1616 66.1113 77.9394C70.1444 84.7173 59.0982 86.9018 59.0982 86.9018C59.0982 86.9018 58.0843 85.5239 55.3452 86.2969Z" fill="white"/>
<path d="M60.465 96.5868C60.465 96.6975 60.4322 96.8058 60.3706 96.898C60.3091 96.9901 60.2216 97.0619 60.1192 97.1043C60.0169 97.1467 59.9043 97.1578 59.7956 97.1361C59.6869 97.1145 59.5871 97.0612 59.5088 96.9828C59.4305 96.9045 59.3771 96.8047 59.3555 96.696C59.3339 96.5874 59.345 96.4748 59.3874 96.3724C59.4298 96.27 59.5016 96.1826 59.5937 96.121C59.6858 96.0595 59.7941 96.0266 59.9049 96.0266C60.0534 96.0266 60.1959 96.0856 60.301 96.1907C60.406 96.2957 60.465 96.4382 60.465 96.5868Z" fill="white"/>
<path d="M56.8298 96.5868C56.8298 96.6975 56.7969 96.8058 56.7354 96.898C56.6738 96.9901 56.5863 97.0619 56.484 97.1043C56.3816 97.1467 56.269 97.1578 56.1603 97.1361C56.0517 97.1145 55.9519 97.0612 55.8735 96.9828C55.7952 96.9045 55.7419 96.8047 55.7202 96.696C55.6986 96.5874 55.7097 96.4748 55.7521 96.3724C55.7945 96.27 55.8663 96.1826 55.9584 96.121C56.0505 96.0595 56.1588 96.0266 56.2696 96.0266C56.4182 96.0266 56.5607 96.0856 56.6657 96.1907C56.7708 96.2957 56.8298 96.4382 56.8298 96.5868Z" fill="white"/>
<path d="M50.8362 54.626C50.3209 60.6364 48.478 71.3353 43.5879 73.6711C43.5879 73.6711 49.055 74.7914 57.5916 85.6079C62.4481 82.2022 60.6108 79.8775 60.6108 79.8775C54.9309 76.1525 56.4041 71.5593 58.7007 67.5542L50.8362 54.626Z" fill="#EBB376"/>
<path opacity="0.2" d="M54.0346 59.897L58.6894 67.571C58.1335 68.4974 57.6629 69.4723 57.2834 70.4838C55.0428 69.2851 52.5894 65.4873 53.0543 62.8882C53.1992 61.8404 53.5313 60.8273 54.0346 59.897Z" fill="black"/>
<path d="M50.1804 41.9162C48.6175 51.3603 47.7549 55.3149 51.2559 61.3926C56.5157 70.5398 68.1724 70.9711 72.4575 62.3224C76.3114 54.5363 78.2215 40.3982 70.1777 34.1581C62.2404 28.0076 51.732 32.4664 50.1804 41.9162Z" fill="#EBB376"/>
<path d="M69.5225 28.8983C75.645 32.2928 81.4761 42.902 72.7658 40.2525C71.4495 42.8012 66.761 40.4654 64.0331 37.4069C63.5737 39.5299 58.5548 41.6585 54.8578 38.3704C56.6447 40.9471 53.6031 47.4504 50.4382 46.3301C47.2734 45.2098 40.1707 43.7366 46.4612 33.71C52.7517 23.6833 62.9856 25.2629 69.5225 28.8983Z" fill="#263238"/>
<path d="M67.293 50.8281C67.293 50.8281 67.8532 54.5755 68.9174 56.6089C67.7243 57.2979 66.1167 56.3792 66.1167 56.3792L67.293 50.8281Z" fill="#D58745"/>
<path d="M61.1875 58.0597C61.585 58.2538 61.9994 58.4113 62.4254 58.5302C62.4542 58.5386 62.4844 58.5407 62.514 58.5366C62.5436 58.5325 62.572 58.5221 62.5974 58.5063C62.6228 58.4904 62.6445 58.4694 62.6612 58.4446C62.6779 58.4197 62.6892 58.3917 62.6943 58.3622C62.7096 58.3006 62.7 58.2354 62.6674 58.1808C62.6349 58.1263 62.5822 58.0868 62.5207 58.0709C61.5569 57.8009 60.666 57.3179 59.9137 56.6577C59.1614 55.9975 58.5668 55.1769 58.1739 54.2563C58.1656 54.2266 58.1514 54.1988 58.1321 54.1747C58.1128 54.1506 58.0888 54.1306 58.0616 54.116C58.0344 54.1013 58.0046 54.0923 57.9738 54.0895C57.943 54.0866 57.912 54.09 57.8826 54.0995C57.8259 54.1231 57.7807 54.1679 57.7566 54.2244C57.7325 54.281 57.7315 54.3447 57.7538 54.4019C58.4095 56.002 59.632 57.3043 61.1875 58.0597Z" fill="#263238"/>
<path d="M45.4139 48.7052C45.9419 50.6687 47.2271 52.3427 48.9876 53.36C51.2674 54.6091 52.9087 52.4694 52.7406 49.8087C52.567 47.4056 51.1666 43.8655 48.6683 43.7254C46.1701 43.5854 44.7361 46.2237 45.4139 48.7052Z" fill="#EBB376"/>
<path d="M60.5434 42.1739C60.5995 42.1999 60.6607 42.2135 60.7226 42.2135C60.7845 42.2135 60.8457 42.1999 60.9018 42.1739C61.399 41.898 61.9564 41.7485 62.5249 41.7388C63.0934 41.729 63.6556 41.8592 64.1619 42.1179C64.2122 42.1501 64.2687 42.1714 64.3277 42.1804C64.3868 42.1893 64.4471 42.1858 64.5047 42.1699C64.5622 42.1541 64.6158 42.1263 64.662 42.0884C64.7081 42.0505 64.7458 42.0032 64.7725 41.9498C64.8279 41.837 64.8397 41.7077 64.8055 41.5867C64.7714 41.4658 64.6938 41.3617 64.5876 41.2944C63.9557 40.9483 63.2468 40.7668 62.5263 40.7668C61.8058 40.7668 61.0969 40.9483 60.4649 41.2944C60.3589 41.3577 60.2813 41.4591 60.2479 41.578C60.2146 41.6968 60.2281 41.8239 60.2857 41.933C60.3402 42.0414 60.4315 42.1268 60.5434 42.1739Z" fill="#263238"/>
<path d="M75.5948 45.8597C75.6453 45.8886 75.7013 45.9065 75.7592 45.9123C75.8171 45.9181 75.8756 45.9116 75.9309 45.8933C75.9891 45.8738 76.0429 45.8429 76.089 45.8022C76.1351 45.7616 76.1726 45.7122 76.1992 45.6568C76.2258 45.6014 76.2411 45.5413 76.2441 45.4799C76.247 45.4186 76.2377 45.3572 76.2165 45.2995C76.012 44.5717 75.6423 43.9009 75.1361 43.3393C74.6299 42.7777 74.0009 42.3406 73.2982 42.0619C73.2405 42.0414 73.1791 42.0336 73.1181 42.039C73.0572 42.0444 72.9981 42.0629 72.945 42.0932C72.8918 42.1235 72.8458 42.1649 72.8101 42.2146C72.7744 42.2643 72.7498 42.3211 72.738 42.3812C72.7089 42.5028 72.726 42.6309 72.786 42.7407C72.846 42.8504 72.9447 42.9339 73.0629 42.9749C73.6167 43.2038 74.1106 43.5566 74.5068 44.0062C74.903 44.4558 75.1909 44.9902 75.3483 45.5684C75.368 45.6309 75.3999 45.6889 75.4422 45.7389C75.4845 45.7889 75.5364 45.83 75.5948 45.8597Z" fill="#263238"/>
<path d="M63.5567 48.3523C63.2822 49.1029 62.6549 49.5567 62.1563 49.3718C61.6578 49.187 61.4786 48.4364 61.753 47.6914C62.0275 46.9464 62.6549 46.487 63.1478 46.6719C63.6407 46.8567 63.8256 47.6073 63.5567 48.3523Z" fill="#263238"/>
<path d="M62.9297 46.6326L64.7894 46.5934C64.7894 46.5934 63.4786 47.6577 62.9297 46.6326Z" fill="#263238"/>
<path d="M72.962 51.3379C72.6875 52.0829 72.0601 52.5366 71.5672 52.3574C71.0743 52.1781 70.8838 51.4163 71.1583 50.6769C71.4328 49.9375 72.0601 49.4782 72.5587 49.6574C73.0572 49.8367 73.2365 50.5873 72.962 51.3379Z" fill="#263238"/>
<path d="M72.3403 49.6127L74.1944 49.5735C74.1944 49.5735 72.8837 50.6434 72.3403 49.6127Z" fill="#263238"/>
<path d="M62.6717 53.6457C62.093 53.6475 61.5204 53.5272 60.9912 53.2928C60.4314 53.0359 59.934 52.6604 59.5336 52.1923C59.1332 51.7242 58.8393 51.1746 58.6722 50.5817C58.3111 49.3034 58.4099 47.9389 58.9514 46.726C59.4928 45.5131 60.4427 44.5285 61.6354 43.9439C62.1879 43.6677 62.7948 43.5174 63.4124 43.5039C64.03 43.4904 64.6429 43.614 65.207 43.8658C65.7711 44.1176 66.2724 44.4913 66.6747 44.96C67.077 45.4288 67.3704 45.9809 67.5338 46.5766C67.9062 47.8537 67.8048 49.2223 67.2481 50.4305C66.7226 51.6583 65.7691 52.6535 64.565 53.2312C63.9717 53.5058 63.3255 53.6473 62.6717 53.6457ZM63.5511 44.1512C62.9934 44.166 62.4454 44.2997 61.9435 44.5433C60.8915 45.0636 60.0541 45.9347 59.5755 47.0064C59.097 48.078 59.0073 49.283 59.322 50.4136C59.4568 50.9226 59.7038 51.395 60.045 51.7961C60.3861 52.1972 60.8126 52.5169 61.2933 52.7317C61.774 52.9466 62.2967 53.0511 62.8231 53.0377C63.3495 53.0243 63.8662 52.8933 64.3353 52.6542C65.3956 52.1468 66.237 51.2735 66.7048 50.1952C67.1972 49.1256 67.2867 47.9142 66.9568 46.7839C66.8163 46.278 66.5671 45.8089 66.2265 45.4093C65.886 45.0098 65.4623 44.6893 64.9851 44.4704C64.5365 44.2596 64.0468 44.1505 63.5511 44.1512Z" fill="#263238"/>
<path d="M71.9929 56.5024C71.4138 56.5075 70.8405 56.3871 70.3124 56.1495C69.7523 55.892 69.2546 55.5164 68.8533 55.0484C68.4521 54.5804 68.1568 54.0312 67.9878 53.4384C67.6294 52.1594 67.73 50.7953 68.2723 49.5829C68.8146 48.3704 69.7643 47.386 70.9566 46.8006C71.5085 46.5233 72.1153 46.3723 72.7328 46.3582C73.3503 46.3442 73.9633 46.4677 74.5272 46.7196C75.0912 46.9716 75.5921 47.3458 75.9937 47.8151C76.3953 48.2844 76.6876 48.8372 76.8494 49.4333C77.2267 50.7094 77.1271 52.0791 76.5693 53.2871C76.1911 54.2027 75.5597 54.9915 74.7491 55.561C73.9386 56.1305 72.9824 56.4571 71.9929 56.5024ZM72.8835 46.9799C72.318 46.9837 71.76 47.1098 71.2479 47.3496C70.1884 47.8609 69.3477 48.7355 68.8784 49.8142C68.3829 50.881 68.2932 52.0918 68.6263 53.2199C68.7668 53.7265 69.016 54.1964 69.3565 54.5969C69.697 54.9973 70.1207 55.3188 70.5981 55.539C72.5586 56.4184 74.9897 55.2757 76.0091 53.0015C76.4991 51.9313 76.5886 50.7208 76.2612 49.5902C76.1196 49.0848 75.87 48.6162 75.5296 48.2168C75.1892 47.8173 74.766 47.4966 74.2895 47.2767C73.8443 47.0912 73.3657 46.9997 72.8835 47.0079V46.9799Z" fill="#263238"/>
<path d="M67.9932 50.6602C67.9809 50.6202 67.96 50.5835 67.9319 50.5525C67.9039 50.5215 67.8693 50.4971 67.8308 50.4809C67.5847 50.438 67.3314 50.4754 67.1082 50.5874L66.8281 50.0272C67.2086 49.8326 67.6479 49.7867 68.0605 49.8984C68.1897 49.944 68.3071 50.0181 68.404 50.115C68.5009 50.2119 68.5749 50.3293 68.6206 50.4585L67.9932 50.6602Z" fill="#263238"/>
<path d="M52.674 44.666L52.4824 45.2791L60.0646 47.6485L60.2562 47.0355L52.674 44.666Z" fill="#263238"/>
<path opacity="0.2" d="M50.8975 103.617C50.8975 103.617 36.1599 114.909 23.2261 114.26C23.7526 106.563 24.6377 96.3347 25.9148 88.6719C27.2368 87.2155 28.105 86.3304 28.105 86.3304L35.9471 92.1952L34.037 94.5927C34.037 94.5927 45.9065 93.9877 50.0405 94.5927L50.8975 103.617Z" fill="black"/>
<path d="M52.421 94.5646L64.2177 92.156L64.6378 102.676C64.6378 102.676 56.6333 105.51 52.0513 100.205L52.421 94.5646Z" fill="#EBB376"/>
<path d="M72.4296 94.5983L70.8724 102.508L64.6379 102.681L64.2178 92.1616L72.4296 94.5983Z" fill="#EBB376"/>
<path d="M52.4211 94.5647L52.998 102.681L50.0628 103.998L48.8081 94.5647H52.4211Z" fill="#407BFF"/>
<path opacity="0.6" d="M52.4211 94.5647L52.998 102.681L50.0628 103.998L48.8081 94.5647H52.4211Z" fill="white"/>
<path d="M33.6842 75.7885C30.5188 76.3473 27.6523 78.0057 25.59 80.4713C22.033 84.65 9.49687 97.063 12.2808 107.196C15.0648 117.329 41.8735 109.79 50.0629 103.998L48.8082 94.5647L30.2392 95.9258L35.964 92.156C39.8906 81.2331 33.6842 75.7885 33.6842 75.7885Z" fill="#407BFF"/>
<path opacity="0.7" d="M33.6842 75.7885C30.5188 76.3473 27.6523 78.0057 25.59 80.4713C22.033 84.65 9.49687 97.063 12.2808 107.196C15.0648 117.329 41.8735 109.79 50.0629 103.998L48.8082 94.5647L30.2392 95.9258L35.964 92.156C39.8906 81.2331 33.6842 75.7885 33.6842 75.7885Z" fill="white"/>
<path d="M87.4644 103.247L90.8421 102.681V111.733L88.1645 112.17L87.4644 103.247Z" fill="#407BFF"/>
<path opacity="0.6" d="M87.4644 103.247L90.8421 102.681V111.733L88.1645 112.17L87.4644 103.247Z" fill="white"/>
<path d="M80.636 111.644C80.6264 111.148 80.6508 110.652 80.7088 110.159L80.8096 109.414L80.0871 109.84L79.6557 110.098C79.5139 110.162 79.368 110.216 79.2188 110.26C78.9637 110.341 78.6898 110.341 78.4346 110.26C78.188 110.169 77.971 110.012 77.8072 109.806C77.6179 109.579 77.4683 109.322 77.3647 109.044L76.7318 107.28L76.2836 109.151C76.2388 109.336 76.2108 109.526 76.1772 109.711C76.1436 109.896 76.0652 110.058 76.0148 110.232C75.9075 110.511 75.7277 110.757 75.4938 110.943C75.2324 111.078 74.9286 111.104 74.648 111.016C74.2948 110.924 73.9584 110.776 73.6509 110.579L72.6763 109.969L73.0684 110.96C73.238 111.382 73.3729 111.816 73.4717 112.26C73.5208 112.481 73.5508 112.706 73.5613 112.932C73.586 113.162 73.5348 113.394 73.4157 113.593C73.6123 113.435 73.7471 113.213 73.7966 112.966C73.8607 112.724 73.8945 112.476 73.8974 112.226C73.9087 112.03 73.9087 111.834 73.8974 111.638C74.0603 111.73 74.2287 111.812 74.4015 111.884C74.6559 111.989 74.9291 112.039 75.2039 112.032C75.4786 112.025 75.749 111.962 75.998 111.845C76.4715 111.579 76.8409 111.161 77.0454 110.658V110.585C77.3484 110.93 77.7546 111.168 78.2036 111.264C78.6527 111.36 79.1207 111.308 79.5381 111.117C79.7027 111.042 79.8618 110.956 80.0142 110.859C80.0142 110.859 80.0142 110.899 80.0142 110.921C80.0544 111.185 80.1086 111.447 80.1767 111.705C80.2449 111.966 80.3387 112.219 80.4568 112.461C80.5687 112.705 80.7355 112.92 80.9441 113.089C80.8184 112.87 80.7366 112.628 80.7032 112.377C80.6644 112.135 80.642 111.889 80.636 111.644Z" fill="#407BFF"/>
<path d="M100.672 99.0067C100.236 99.049 99.7957 99.0014 99.3785 98.8667C98.9487 98.739 98.5394 98.5503 98.163 98.3065C97.8057 98.0413 97.5001 97.7128 97.2612 97.3374C97.0085 96.9646 96.8069 96.5595 96.6618 96.1331L96.2921 95.0128L95.6648 96.0043C95.3966 96.4202 95.0724 96.7972 94.7013 97.1246C94.4 97.4226 94.0034 97.6051 93.581 97.6399H93.4466L93.2785 97.6063C93.1609 97.6063 93.0489 97.5503 92.9312 97.5223C92.6972 97.4453 92.4704 97.3478 92.2534 97.231C91.8149 96.9856 91.4101 96.6843 91.0491 96.3348L90.0745 95.3993L90.2761 96.6821C90.3889 97.3668 90.432 98.0612 90.4049 98.7546C90.394 99.0809 90.3278 99.4029 90.2089 99.7069C90.1561 99.8399 90.0597 99.951 89.9356 100.022C89.8115 100.093 89.667 100.12 89.5255 100.099H89.2734L89.3519 100.306C89.5162 100.728 89.6842 101.148 89.856 101.567C89.8056 101.191 89.744 100.816 89.6767 100.446H89.7832C89.8949 100.438 90.0055 100.419 90.1137 100.39C90.2165 100.337 90.3157 100.277 90.4105 100.211C90.4834 100.133 90.5618 100.049 90.629 99.9645C90.844 99.6237 90.987 99.2424 91.0491 98.8442C91.1197 98.4746 91.1609 98.1 91.1723 97.7239C91.3514 97.8722 91.5384 98.0106 91.7325 98.1384C91.9955 98.3002 92.2731 98.4371 92.5615 98.5474C92.8696 98.6753 93.1974 98.7492 93.5306 98.7658C94.2235 98.7559 94.889 98.4929 95.4015 98.0264C95.6214 97.842 95.8256 97.6396 96.012 97.4215C96.1218 97.6143 96.2414 97.8012 96.3705 97.9816C96.7057 98.4444 97.1235 98.8413 97.6029 99.1523C98.0809 99.4427 98.606 99.6475 99.1545 99.7573C99.5067 99.8257 99.8659 99.8521 100.224 99.8357C100.18 99.9477 100.129 100.06 100.09 100.177C99.9916 100.501 99.9149 100.83 99.8603 101.163C99.8007 101.498 99.7856 101.839 99.8155 102.177C99.8326 102.514 99.9348 102.842 100.112 103.129C100.016 102.824 99.991 102.5 100.04 102.183C100.082 101.868 100.155 101.559 100.258 101.258C100.473 100.673 100.745 100.11 101.07 99.578L101.423 98.9787L100.672 99.0067Z" fill="#407BFF"/>
<path d="M212.736 132.112L16.291 132.112C15.6314 132.112 14.9988 131.85 14.5324 131.383C14.0659 130.917 13.8039 130.284 13.8039 129.625V123.575L215.223 123.575V129.625C215.223 130.284 214.961 130.917 214.494 131.383C214.028 131.85 213.395 132.112 212.736 132.112Z" fill="#407BFF"/>
<path opacity="0.2" d="M13.7983 127.838L215.223 127.838V123.569L13.7983 123.569V127.838Z" fill="black"/>
<path d="M9.58052 124.684H219.446C220.084 124.684 220.696 124.431 221.148 123.98C221.599 123.53 221.853 122.919 221.855 122.281C221.855 121.642 221.601 121.029 221.149 120.578C220.698 120.126 220.085 119.872 219.446 119.872H9.58052C8.94171 119.872 8.32906 120.126 7.87735 120.578C7.42564 121.029 7.17188 121.642 7.17188 122.281C7.17336 122.919 7.42778 123.53 7.87933 123.98C8.33088 124.431 8.94268 124.684 9.58052 124.684Z" fill="#407BFF"/>
<path d="M61.8203 116.046V118.382C61.8203 119.435 63.0918 119.872 64.1449 119.872H146.252C147.294 119.872 148.532 119.435 148.532 118.382V116.046H61.8203Z" fill="#263238"/>
<path opacity="0.4" d="M61.8203 116.046V118.382C61.8203 119.435 63.0918 119.872 64.1449 119.872H146.252C147.294 119.872 148.532 119.435 148.532 118.382V116.046H61.8203Z" fill="white"/>
<path opacity="0.2" d="M89.7944 116.046V118.382C89.7944 119.435 91.0436 119.872 92.0967 119.872H146.252C147.294 119.872 148.532 119.435 148.532 118.382V116.046H89.7944Z" fill="black"/>
<path d="M162.272 71.6153L152.497 115.951C152.322 116.664 151.916 117.298 151.343 117.756C150.769 118.214 150.061 118.47 149.327 118.483H95.9277C94.5106 118.483 93.5919 117.156 93.9224 115.682L103.686 71.6826C104.016 70.2374 105.428 69.5148 106.862 69.5148H160.255C161.689 69.5204 162.591 70.1701 162.272 71.6153Z" fill="#263238"/>
<path opacity="0.4" d="M162.272 71.6153L152.498 115.951C152.322 116.664 151.916 117.298 151.343 117.756C150.769 118.214 150.061 118.47 149.327 118.483H97.7429C96.3089 118.483 95.4071 117.156 95.7264 115.682L105.501 71.6826C105.82 70.2374 107.243 69.5148 108.677 69.5148H160.256C161.69 69.5204 162.591 70.1701 162.272 71.6153Z" fill="white"/>
<path opacity="0.2" d="M135.945 94.1502C135.945 97.948 131.878 101.034 128.893 101.034C125.907 101.034 124.143 97.948 124.972 94.1502C125.801 90.3523 128.786 87.4003 131.694 87.2827C130.842 91.0805 132.663 94.1502 135.615 94.1502C135.725 94.1606 135.835 94.1606 135.945 94.1502Z" fill="black"/>
</g>
<rect x="0.5" y="0.5" width="129" height="129" rx="64.5" stroke="white"/>
</g>
<defs>
<filter id="filter0_i_116_5061" x="0" y="0" width="134" height="134" filterUnits="userSpaceOnUse" color-interpolation-filters="sRGB">
<feFlood flood-opacity="0" result="BackgroundImageFix"/>
<feBlend mode="normal" in="SourceGraphic" in2="BackgroundImageFix" result="shape"/>
<feColorMatrix in="SourceAlpha" type="matrix" values="0 0 0 0 0 0 0 0 0 0 0 0 0 0 0 0 0 0 127 0" result="hardAlpha"/>
<feOffset dx="4" dy="4"/>
<feGaussianBlur stdDeviation="7.5"/>
<feComposite in2="hardAlpha" operator="arithmetic" k2="-1" k3="1"/>
<feColorMatrix type="matrix" values="0 0 0 0 0 0 0 0 0 0 0 0 0 0 0 0 0 0 0.15 0"/>
<feBlend mode="normal" in2="shape" result="effect1_innerShadow_116_5061"/>
</filter>
<clipPath id="clip0_116_5061">
<rect width="130" height="130" rx="65" fill="white"/>
</clipPath>
</defs>
</svg>
