<svg width="130" height="130" viewBox="0 0 130 130" fill="none" xmlns="http://www.w3.org/2000/svg">
<g filter="url(#filter0_i_116_4227)">
<g clip-path="url(#clip0_116_4227)">
<rect width="130" height="130" rx="65" fill="white"/>
<path d="M40.373 12.2349H-34.5449V62.3955H40.373V12.2349Z" fill="white"/>
<path d="M40.4028 62.3956C40.4028 62.3956 40.4028 62.0785 40.4028 61.4802C40.4028 60.8819 40.4028 59.9905 40.4028 58.8358C40.4028 56.5144 40.4028 53.1101 40.4028 48.7486C40.4028 40.0315 40.3729 27.5033 40.349 12.2529L40.4567 12.3606H-34.4553L-34.3177 12.2289C-34.3177 30.0999 -34.3177 47.0913 -34.3177 62.3896L-34.4433 62.264L19.5285 62.3238L34.9524 62.3597H39.0507H40.1097H40.4746H39.0806H35.0003L19.6122 62.3896L-34.4433 62.4494H-34.563V62.3298C-34.563 47.0315 -34.563 30.0221 -34.563 12.1691V12.0315H-34.4254H40.4866H40.5943V12.1392C40.5943 27.4375 40.5524 39.9896 40.5345 48.7187C40.5345 53.0682 40.5345 56.4665 40.5345 58.7819C40.5345 59.9306 40.5345 60.8101 40.5345 61.4084C40.5345 62.0067 40.4028 62.3956 40.4028 62.3956Z" fill="#E0E0E0"/>
<path d="M-34.5449 16.71C-34.5449 16.6382 -17.7928 16.5724 2.88414 16.5724C23.5611 16.5724 40.3132 16.6382 40.3132 16.71C40.3132 16.7818 23.5611 16.8416 2.88414 16.8416C-17.7928 16.8416 -34.5449 16.7698 -34.5449 16.71Z" fill="#E0E0E0"/>
<path d="M30.1007 27.5869C30.1007 27.6647 22.3229 27.7246 12.6964 27.7246C3.0699 27.7246 -4.71387 27.6647 -4.71387 27.5869C-4.71387 27.5092 3.06392 27.4553 12.6964 27.4553C22.3289 27.4553 30.1007 27.5391 30.1007 27.5869Z" fill="#E0E0E0"/>
<path d="M30.1007 31.3025C30.1007 31.3743 22.3229 31.4341 12.6964 31.4341C3.0699 31.4341 -4.71387 31.3743 -4.71387 31.3025C-4.71387 31.2307 3.06392 31.1709 12.6964 31.1709C22.3289 31.1709 30.1007 31.2307 30.1007 31.3025Z" fill="#E0E0E0"/>
<path d="M30.1007 35.0177C30.1007 35.0895 22.3229 35.1494 12.6964 35.1494C3.0699 35.1494 -4.71387 35.0895 -4.71387 35.0177C-4.71387 34.9459 3.06392 34.8801 12.6964 34.8801C22.3289 34.8801 30.1007 34.94 30.1007 35.0177Z" fill="#E0E0E0"/>
<path d="M15.8726 38.7272C15.6057 38.7715 15.3352 38.7895 15.0649 38.781L12.8572 38.8229C10.9965 38.8229 8.42386 38.8648 5.58796 38.8648C2.75206 38.8648 0.203347 38.8648 -1.68725 38.8229L-3.89495 38.781C-4.16529 38.7895 -4.43581 38.7715 -4.70264 38.7272C-4.43535 38.6874 -4.16506 38.6714 -3.89495 38.6793L-1.68725 38.6375C0.173432 38.6076 2.74608 38.5956 5.58796 38.5956C8.42984 38.5956 10.9726 38.5956 12.8572 38.6375L15.0649 38.6793C15.335 38.6714 15.6053 38.6874 15.8726 38.7272Z" fill="#E0E0E0"/>
<path d="M16.6026 48.6587H7.20947V58.0519H16.6026V48.6587Z" fill="#E0E0E0"/>
<path d="M33.6358 48.6587H24.2427V58.0519H33.6358V48.6587Z" fill="#E0E0E0"/>
<path d="M97.3724 -25.6847H27.145V2.8418H97.3724V-25.6847Z" fill="white"/>
<path d="M97.3719 2.84174C97.3719 2.84174 97.3719 2.66824 97.3719 2.33319C97.3719 1.99815 97.3719 1.50157 97.3719 0.855413C97.3719 -0.44886 97.3719 -2.35741 97.3719 -4.82236C97.3719 -9.7463 97.3719 -16.866 97.33 -25.6848L97.4078 -25.607L27.1864 -25.5711L27.2403 -25.7087V2.81781L27.1326 2.71011L77.4847 2.76396L92.089 2.79387H96.0018H92.1129H77.5326L27.1087 2.84174H27.001V2.73405C27.001 -6.15655 27.001 -15.813 27.001 -25.7925V-25.9001H27.1206H97.342H97.4198V-25.7087C97.4198 -16.8719 97.3899 -9.73433 97.3779 -4.79844C97.3779 -2.34544 97.3779 -0.436893 97.3779 0.861397C97.3779 1.50157 97.3779 1.99216 97.3779 2.32721C97.3779 2.66225 97.3719 2.84174 97.3719 2.84174Z" fill="#E0E0E0"/>
<path d="M184.688 23.5966H100.849V91.8974H184.688V23.5966Z" fill="#E0E0E0"/>
<path d="M178.729 27.9341H94.8901V96.2349H178.729V27.9341Z" fill="#EBEBEB"/>
<path d="M172.751 32.6904H86.6753V102.816H172.751V32.6904Z" fill="white"/>
<path d="M172.751 102.816C172.751 102.816 172.751 102.367 172.751 101.524C172.751 100.68 172.751 99.4118 172.751 97.7785C172.751 94.4999 172.751 89.6956 172.721 83.5691C172.721 71.3281 172.679 53.8161 172.65 32.7144L172.781 32.846H86.7171L86.8726 32.6905C86.8726 58.046 86.8726 81.9896 86.8726 102.816L86.729 102.673L148.951 102.744L166.553 102.78H171.214H172.41H172.823H171.244H166.607L149.035 102.816L86.747 102.888H86.6094V102.75C86.6094 81.9238 86.6094 57.9802 86.6094 32.6247V32.4691H86.7769H172.841H172.973V32.6007C172.943 53.7563 172.919 71.2982 172.907 83.5631C172.907 89.6717 172.877 94.47 172.871 97.7426C172.871 99.364 172.871 100.614 172.871 101.458C172.871 102.302 172.751 102.816 172.751 102.816Z" fill="#263238"/>
<path d="M97.1694 42.8255L96.242 43.1606L97.1694 43.5016V43.8486L95.8472 43.346V42.9811L97.1694 42.4785V42.8255Z" fill="#FF725E"/>
<path d="M99.3469 42.1912V44.1356H98.8981V43.3399H98.0127V44.1356H97.564V42.1912H98.0127V42.957H98.8981V42.1912H99.3469Z" fill="#FF725E"/>
<path d="M100.233 42.5561H99.6343V42.1912H101.327V42.5561H100.729V44.1356H100.233V42.5561Z" fill="#FF725E"/>
<path d="M103.29 44.1359V42.9393L102.692 43.8965H102.489L101.92 42.9632V44.1059H101.496V42.1615H101.867L102.596 43.3581L103.314 42.1615H103.679V44.1059L103.29 44.1359Z" fill="#FF725E"/>
<path d="M104.169 42.1912H104.618V43.7706H105.617V44.1356H104.193L104.169 42.1912Z" fill="#FF725E"/>
<path d="M107.101 42.981V43.3459L105.785 43.8485V43.5015L106.706 43.1604L105.785 42.8254V42.4963L107.101 42.981Z" fill="#FF725E"/>
<path d="M96.3855 96.0017L95.4461 96.3427L96.3735 96.6777V97.0248L95.0513 96.5222V96.1572L96.3735 95.6547L96.3855 96.0017Z" fill="#FF725E"/>
<path d="M97.3734 94.9725H97.7623L96.8469 97.5871H96.458L97.3734 94.9725Z" fill="#FF725E"/>
<path d="M99.6346 95.3674V97.3119H99.1799V96.5162H98.3183V97.3119H97.8696V95.3674H98.3183V96.1332H99.1978V95.3674H99.6346Z" fill="#FF725E"/>
<path d="M100.508 95.7445H99.9097V95.3795H101.597V95.7445H100.999V97.324H100.544L100.508 95.7445Z" fill="#FF725E"/>
<path d="M103.589 97.3119V96.1452L102.991 97.1085H102.787L102.219 96.1691V97.3119H101.8V95.3674H102.171L102.895 96.564L103.613 95.3674H103.984V97.3119H103.589Z" fill="#FF725E"/>
<path d="M104.469 95.3674H104.917V96.9409H105.893V97.3059H104.469V95.3674Z" fill="#FF725E"/>
<path d="M107.412 96.1572V96.5222L106.09 97.0248V96.6777L107.017 96.3427L106.09 96.0017V95.6547L107.412 96.1572Z" fill="#FF725E"/>
<path d="M103.266 48.1443L102.279 48.5213L103.266 48.9042V49.1315L102.021 48.6409V48.4016L103.266 47.911V48.1443Z" fill="black"/>
<path d="M105.408 47.5521V49.4966H105.133V48.629H104.02V49.4966H103.739V47.5521H104.02V48.3897H105.133V47.5521H105.408Z" fill="black"/>
<path d="M107.412 49.2513V49.4966H106V47.5521H107.377V47.7914H106.282V48.3897H107.257V48.6231H106.282V49.2214L107.412 49.2513Z" fill="black"/>
<path d="M109.087 49.006H108.052L107.843 49.4966H107.556L108.435 47.5521H108.71L109.59 49.4966H109.297L109.087 49.006ZM108.992 48.7846L108.573 47.8333L108.148 48.7846H108.992Z" fill="black"/>
<path d="M109.877 47.5519H110.697C110.831 47.5414 110.966 47.5587 111.093 47.6028C111.22 47.6469 111.337 47.7168 111.435 47.8081C111.534 47.8994 111.613 48.0102 111.667 48.1334C111.721 48.2566 111.749 48.3897 111.749 48.5242C111.749 48.6587 111.721 48.7917 111.667 48.9149C111.613 49.0382 111.534 49.1489 111.435 49.2402C111.337 49.3315 111.22 49.4014 111.093 49.4455C110.966 49.4896 110.831 49.5069 110.697 49.4964H109.877V47.5519ZM110.679 49.2511C110.873 49.2511 111.058 49.1742 111.195 49.0373C111.332 48.9004 111.409 48.7148 111.409 48.5212C111.409 48.3276 111.332 48.1419 111.195 48.0051C111.058 47.8682 110.873 47.7913 110.679 47.7913H110.153V49.2511H110.679Z" fill="black"/>
<path d="M113.305 48.4016V48.6409L112.061 49.1315V48.9042L113.048 48.5213L112.061 48.1443V47.911L113.305 48.4016Z" fill="black"/>
<path d="M103.266 54.7974L102.279 55.1743L103.266 55.5573V55.7846L102.021 55.294V55.0607L103.266 54.5701V54.7974Z" fill="black"/>
<path d="M104.128 54.4621H103.458V54.2228H105.067V54.4621H104.421V56.1672H104.146L104.128 54.4621Z" fill="black"/>
<path d="M105.366 54.205H105.647V56.1494H105.366V54.205Z" fill="black"/>
<path d="M106.611 54.4621H105.947V54.2228H107.55V54.4621H106.886V56.1672H106.611V54.4621Z" fill="black"/>
<path d="M107.855 54.205H108.13V55.9041H109.207V56.1494H107.879L107.855 54.205Z" fill="black"/>
<path d="M110.912 55.9041V56.1494H109.5V54.205H110.87V54.4443H109.805V55.0426H110.78V55.2819H109.805V55.8802L110.912 55.9041Z" fill="black"/>
<path d="M112.498 55.0607V55.3L111.253 55.7906V55.5632L112.241 55.1803L111.253 54.8034V54.5701L112.498 55.0607Z" fill="black"/>
<path d="M113.718 54.205H113.993V55.9041H115.046V56.1494H113.718V54.205Z" fill="black"/>
<path d="M115.19 55.4134C115.188 55.2614 115.231 55.1122 115.314 54.9847C115.396 54.8572 115.515 54.7572 115.655 54.6974C115.794 54.6376 115.949 54.6207 116.098 54.6489C116.247 54.6771 116.385 54.7491 116.493 54.8557C116.602 54.9623 116.676 55.0987 116.706 55.2476C116.737 55.3964 116.722 55.551 116.665 55.6917C116.607 55.8323 116.509 55.9526 116.383 56.0373C116.257 56.122 116.108 56.1672 115.956 56.1672C115.855 56.1723 115.754 56.1563 115.66 56.1204C115.566 56.0844 115.48 56.0293 115.408 55.9584C115.336 55.8876 115.279 55.8025 115.242 55.7087C115.204 55.6149 115.187 55.5143 115.19 55.4134ZM116.447 55.4134C116.454 55.344 116.447 55.2738 116.426 55.2073C116.405 55.1409 116.37 55.0796 116.323 55.0276C116.276 54.9756 116.219 54.9341 116.156 54.9056C116.092 54.8771 116.023 54.8624 115.953 54.8624C115.883 54.8624 115.814 54.8771 115.751 54.9056C115.687 54.9341 115.63 54.9756 115.583 55.0276C115.537 55.0796 115.502 55.1409 115.48 55.2073C115.459 55.2738 115.452 55.344 115.46 55.4134C115.452 55.4828 115.459 55.553 115.48 55.6195C115.502 55.6859 115.537 55.7472 115.583 55.7992C115.63 55.8512 115.687 55.8927 115.751 55.9212C115.814 55.9497 115.883 55.9644 115.953 55.9644C116.023 55.9644 116.092 55.9497 116.156 55.9212C116.219 55.8927 116.276 55.8512 116.323 55.7992C116.37 55.7472 116.405 55.6859 116.426 55.6195C116.447 55.553 116.454 55.4828 116.447 55.4134Z" fill="black"/>
<path d="M117.858 54.6656V54.9229H117.798C117.733 54.9188 117.668 54.9292 117.608 54.9532C117.547 54.9771 117.493 55.0141 117.448 55.0616C117.404 55.109 117.37 55.1656 117.35 55.2275C117.33 55.2893 117.324 55.3549 117.332 55.4194V56.1553H117.068V54.6835H117.32V54.9288C117.375 54.8387 117.456 54.7661 117.551 54.7195C117.646 54.6729 117.753 54.6542 117.858 54.6656Z" fill="black"/>
<path d="M119.492 55.5033H118.295C118.312 55.6297 118.376 55.745 118.475 55.8252C118.574 55.9053 118.7 55.9443 118.828 55.9341C118.907 55.937 118.986 55.9225 119.06 55.8915C119.133 55.8605 119.199 55.8137 119.252 55.7546L119.396 55.9281C119.287 56.0381 119.149 56.1142 118.998 56.1473C118.846 56.1804 118.689 56.1691 118.544 56.1147C118.399 56.0603 118.273 55.9652 118.181 55.8408C118.089 55.7163 118.035 55.568 118.026 55.4135C118.023 55.3149 118.039 55.2167 118.075 55.1249C118.111 55.0331 118.166 54.9496 118.235 54.8795C118.305 54.8095 118.388 54.7544 118.479 54.7176C118.571 54.6809 118.669 54.6632 118.768 54.6657C118.866 54.6629 118.964 54.6808 119.055 54.7181C119.146 54.7555 119.228 54.8114 119.296 54.8824C119.365 54.9534 119.417 55.0378 119.451 55.1303C119.484 55.2228 119.498 55.3213 119.492 55.4195C119.495 55.4474 119.495 55.4754 119.492 55.5033ZM118.295 55.3118H119.24C119.24 55.1865 119.191 55.0663 119.102 54.9776C119.013 54.889 118.893 54.8392 118.768 54.8392C118.642 54.8392 118.522 54.889 118.433 54.9776C118.345 55.0663 118.295 55.1865 118.295 55.3118Z" fill="black"/>
<path d="M122.31 55.2998V56.1494H122.04V55.3297C122.04 55.0426 121.903 54.905 121.664 54.905C121.601 54.9017 121.538 54.9123 121.48 54.9361C121.422 54.9599 121.37 54.9963 121.328 55.0426C121.285 55.089 121.254 55.1441 121.235 55.2041C121.217 55.2641 121.212 55.3274 121.221 55.3896V56.1494H120.952V55.3297C120.952 55.0426 120.814 54.905 120.575 54.905C120.512 54.9017 120.449 54.9123 120.391 54.9361C120.333 54.9599 120.281 54.9963 120.239 55.0426C120.196 55.089 120.165 55.1441 120.146 55.2041C120.128 55.2641 120.123 55.3274 120.132 55.3896V56.1494H119.869V54.6776H120.12V54.899C120.179 54.8216 120.257 54.7599 120.345 54.7192C120.434 54.6785 120.531 54.6601 120.628 54.6656C120.731 54.6574 120.834 54.6783 120.925 54.7259C121.016 54.7736 121.091 54.846 121.143 54.9349C121.206 54.8462 121.291 54.775 121.39 54.7279C121.488 54.6809 121.597 54.6594 121.705 54.6656C121.789 54.6587 121.873 54.6705 121.952 54.7004C122.03 54.7302 122.101 54.7773 122.159 54.8381C122.217 54.899 122.261 54.972 122.287 55.0519C122.313 55.1318 122.321 55.2165 122.31 55.2998Z" fill="black"/>
<path d="M123.494 54.223C123.494 54.1997 123.499 54.1766 123.508 54.1552C123.517 54.1337 123.53 54.1144 123.547 54.0982C123.564 54.082 123.584 54.0693 123.605 54.0609C123.627 54.0526 123.65 54.0487 123.674 54.0495C123.697 54.0479 123.72 54.051 123.741 54.0586C123.763 54.0663 123.783 54.0784 123.8 54.0941C123.817 54.1098 123.83 54.1289 123.839 54.15C123.848 54.1712 123.853 54.194 123.853 54.217C123.854 54.2408 123.85 54.2645 123.841 54.2867C123.832 54.3088 123.819 54.329 123.802 54.3458C123.786 54.3626 123.765 54.3758 123.743 54.3846C123.721 54.3933 123.697 54.3973 123.674 54.3965C123.65 54.3973 123.627 54.3934 123.605 54.3851C123.584 54.3767 123.564 54.3641 123.547 54.3479C123.53 54.3317 123.517 54.3123 123.508 54.2908C123.499 54.2694 123.494 54.2463 123.494 54.223ZM123.542 54.6777H123.811V56.1495H123.566L123.542 54.6777Z" fill="black"/>
<path d="M125.84 55.4136C125.845 55.5129 125.829 55.6122 125.794 55.7051C125.758 55.798 125.704 55.8826 125.634 55.9535C125.565 56.0244 125.481 56.08 125.388 56.1168C125.296 56.1536 125.197 56.1709 125.098 56.1674C124.999 56.1702 124.902 56.1501 124.812 56.1085C124.723 56.067 124.644 56.0052 124.583 55.9281V56.6879H124.314V54.6777H124.571V54.911C124.633 54.8311 124.713 54.7672 124.805 54.7245C124.896 54.6819 124.997 54.6617 125.098 54.6657C125.197 54.6614 125.296 54.6779 125.388 54.714C125.48 54.7501 125.564 54.8052 125.634 54.8756C125.704 54.946 125.758 55.0302 125.794 55.1229C125.829 55.2155 125.845 55.3145 125.84 55.4136ZM125.57 55.4136C125.57 55.2819 125.518 55.1556 125.425 55.0624C125.332 54.9693 125.205 54.917 125.074 54.917C124.942 54.917 124.816 54.9693 124.723 55.0624C124.63 55.1556 124.577 55.2819 124.577 55.4136C124.577 55.5453 124.63 55.6716 124.723 55.7647C124.816 55.8578 124.942 55.9102 125.074 55.9102C125.205 55.9102 125.332 55.8578 125.425 55.7647C125.518 55.6716 125.57 55.5453 125.57 55.4136Z" fill="black"/>
<path d="M126.019 55.9939L126.133 55.7845C126.287 55.8808 126.465 55.9326 126.647 55.9341C126.893 55.9341 127 55.8623 127 55.7366C127 55.4016 126.067 55.6888 126.067 55.1024C126.067 54.8392 126.306 54.6657 126.665 54.6657C126.851 54.6615 127.035 54.7069 127.198 54.7973L127.084 55.0067C126.956 54.9291 126.809 54.8896 126.659 54.893C126.426 54.893 126.312 54.9768 126.312 55.0964C126.312 55.4375 127.246 55.1563 127.246 55.7306C127.246 55.9939 127 56.1674 126.611 56.1674C126.401 56.1679 126.196 56.1076 126.019 55.9939Z" fill="black"/>
<path d="M128.95 54.6776V56.1494H128.699V55.928C128.641 56.0057 128.565 56.068 128.477 56.1097C128.39 56.1514 128.293 56.1712 128.196 56.1674C128.111 56.1728 128.025 56.1597 127.944 56.129C127.864 56.0983 127.792 56.0507 127.731 55.9893C127.671 55.928 127.625 55.8545 127.596 55.7737C127.567 55.6929 127.555 55.6068 127.562 55.5212V54.6776H127.831V55.4913C127.831 55.7845 127.975 55.928 128.226 55.928C128.29 55.9322 128.354 55.9221 128.414 55.8984C128.473 55.8747 128.527 55.838 128.57 55.791C128.614 55.744 128.646 55.6879 128.666 55.6267C128.685 55.5656 128.69 55.5009 128.681 55.4374V54.6776H128.95Z" fill="black"/>
<path d="M131.942 55.2999V56.1495H131.679V55.3298C131.679 55.0427 131.541 54.9051 131.296 54.9051C131.234 54.9027 131.172 54.914 131.114 54.9382C131.057 54.9624 131.006 54.9989 130.964 55.0451C130.922 55.0914 130.891 55.1462 130.873 55.2057C130.855 55.2653 130.85 55.3281 130.859 55.3897V56.1495H130.59V55.3298C130.59 55.0427 130.452 54.9051 130.213 54.9051C130.15 54.9018 130.088 54.9124 130.03 54.9362C129.971 54.96 129.919 54.9964 129.877 55.0427C129.835 55.0891 129.803 55.1442 129.785 55.2042C129.766 55.2642 129.761 55.3275 129.77 55.3897V56.1495H129.501V54.6777H129.758V54.8991C129.818 54.8217 129.895 54.76 129.984 54.7193C130.072 54.6786 130.169 54.6602 130.267 54.6657C130.368 54.6579 130.47 54.6791 130.56 54.7267C130.65 54.7744 130.725 54.8466 130.775 54.935C130.84 54.8466 130.926 54.7758 131.026 54.7288C131.125 54.6818 131.234 54.6602 131.344 54.6657C131.427 54.6586 131.511 54.6704 131.59 54.7002C131.668 54.7301 131.739 54.7773 131.796 54.8383C131.854 54.8993 131.897 54.9725 131.922 55.0524C131.947 55.1323 131.954 55.217 131.942 55.2999Z" fill="black"/>
<path d="M103.266 61.4503L102.279 61.8332L103.266 62.2101V62.4434L102.021 61.9468V61.7135L103.266 61.2169V61.4503Z" fill="black"/>
<path d="M104.29 60.4452H104.529L103.613 63.0597H103.368L104.29 60.4452Z" fill="black"/>
<path d="M106.383 60.858V62.8025H106.108V61.935H105.019V62.8025H104.738V60.858H105.019V61.6956H106.132V60.858H106.383Z" fill="black"/>
<path d="M108.376 62.5572V62.8025H106.97V60.858H108.34V61.1033H107.245V61.7016H108.22V61.9409H107.245V62.5392L108.376 62.5572Z" fill="black"/>
<path d="M110.063 62.3179H109.028L108.818 62.8025H108.531L109.411 60.858H109.686L110.565 62.8025H110.278L110.063 62.3179ZM109.967 62.0965L109.548 61.1392L109.13 62.0965H109.967Z" fill="black"/>
<path d="M110.853 60.8581H111.672C111.806 60.8476 111.941 60.8649 112.068 60.909C112.195 60.9531 112.312 61.023 112.411 61.1143C112.509 61.2056 112.588 61.3163 112.642 61.4395C112.696 61.5628 112.724 61.6958 112.724 61.8303C112.724 61.9648 112.696 62.0979 112.642 62.2211C112.588 62.3443 112.509 62.4551 112.411 62.5464C112.312 62.6377 112.195 62.7076 112.068 62.7517C111.941 62.7957 111.806 62.8131 111.672 62.8025H110.853V60.8581ZM111.654 62.5572C111.755 62.5664 111.857 62.5544 111.953 62.5221C112.049 62.4897 112.138 62.4377 112.212 62.3693C112.287 62.3009 112.347 62.2176 112.388 62.1248C112.429 62.032 112.45 61.9317 112.45 61.8303C112.45 61.7289 112.429 61.6286 112.388 61.5358C112.347 61.443 112.287 61.3598 112.212 61.2914C112.138 61.223 112.049 61.1709 111.953 61.1386C111.857 61.1062 111.755 61.0942 111.654 61.1034H111.134V62.5572H111.654Z" fill="black"/>
<path d="M114.281 61.7135V61.9468L113.036 62.4434V62.24L114.023 61.8631L113.036 61.4802V61.2468L114.281 61.7135Z" fill="black"/>
<path d="M98.1087 67.2237L97.1275 67.6066L98.1087 67.9835V68.2228L96.8643 67.7322V67.4929L98.1087 67.0023V67.2237Z" fill="black"/>
<path d="M100.233 68.0494C100.233 68.3845 99.9814 68.5759 99.4908 68.5759H98.5635V66.6315H99.431C99.8797 66.6315 100.131 66.8229 100.131 67.134C100.044 67.181 99.9727 67.2529 99.9268 67.3406C99.8808 67.4282 99.8621 67.5277 99.873 67.626C99.8839 67.7244 99.924 67.8173 99.9881 67.8927C100.052 67.9682 100.137 68.0227 100.233 68.0494ZM98.8387 66.8528V67.4511H99.437C99.7242 67.4511 99.8797 67.3434 99.8797 67.14C99.8797 66.9366 99.7242 66.8289 99.437 66.8289L98.8387 66.8528ZM99.9515 68.0494C99.9515 67.8221 99.784 67.7204 99.4789 67.7204H98.8387V68.3665H99.4789C99.8079 68.3486 99.9755 68.2528 99.9755 68.0315L99.9515 68.0494Z" fill="black"/>
<path d="M100.526 67.6247C100.518 67.4184 100.571 67.2143 100.68 67.0387C100.788 66.863 100.947 66.7239 101.135 66.6391C101.324 66.5543 101.533 66.5277 101.736 66.5628C101.94 66.5979 102.128 66.693 102.277 66.8359C102.426 66.9789 102.529 67.1631 102.572 67.3649C102.616 67.5668 102.598 67.777 102.521 67.9686C102.444 68.1602 102.311 68.3244 102.14 68.44C101.969 68.5557 101.768 68.6176 101.561 68.6178C101.427 68.6243 101.293 68.6034 101.167 68.5564C101.042 68.5093 100.927 68.4371 100.83 68.3441C100.733 68.2511 100.656 68.1394 100.604 68.0157C100.552 67.892 100.525 67.7589 100.526 67.6247ZM102.321 67.6247C102.325 67.4734 102.283 67.3245 102.201 67.1971C102.12 67.0697 102.002 66.9695 101.863 66.9094C101.724 66.8493 101.571 66.832 101.422 66.8598C101.273 66.8875 101.136 66.959 101.029 67.0652C100.921 67.1713 100.847 67.3072 100.817 67.4554C100.787 67.6037 100.802 67.7576 100.859 67.8974C100.917 68.0371 101.016 68.1565 101.142 68.2401C101.268 68.3236 101.416 68.3677 101.567 68.3665C101.666 68.369 101.763 68.3515 101.855 68.3151C101.946 68.2788 102.03 68.2243 102.099 68.155C102.169 68.0857 102.224 68.003 102.261 67.9119C102.299 67.8207 102.317 67.723 102.315 67.6247H102.321Z" fill="black"/>
<path d="M103.014 66.6315H103.822C103.956 66.621 104.091 66.6383 104.218 66.6824C104.345 66.7265 104.462 66.7964 104.56 66.8877C104.659 66.979 104.738 67.0898 104.792 67.213C104.846 67.3362 104.874 67.4693 104.874 67.6038C104.874 67.7383 104.846 67.8713 104.792 67.9945C104.738 68.1178 104.659 68.2285 104.56 68.3198C104.462 68.4111 104.345 68.481 104.218 68.5251C104.091 68.5692 103.956 68.5865 103.822 68.576H103.002L103.014 66.6315ZM103.816 68.3367C103.912 68.3367 104.007 68.3178 104.095 68.2811C104.184 68.2444 104.264 68.1907 104.332 68.1229C104.4 68.0551 104.454 67.9746 104.49 67.8861C104.527 67.7975 104.546 67.7026 104.546 67.6067C104.546 67.5109 104.527 67.416 104.49 67.3274C104.454 67.2389 104.4 67.1584 104.332 67.0906C104.264 67.0228 104.184 66.9691 104.095 66.9324C104.007 66.8957 103.912 66.8768 103.816 66.8768H103.29V68.3367H103.816Z" fill="black"/>
<path d="M105.964 67.9058V68.5759H105.689V67.8999L104.917 66.6315H105.216L105.814 67.6605L106.413 66.6315H106.688L105.964 67.9058Z" fill="black"/>
<path d="M108.154 67.4869V67.7262L106.91 68.2168V67.9835L107.897 67.6066L106.91 67.2237V67.0262L108.154 67.4869Z" fill="black"/>
<path d="M98.1087 73.8768L97.1275 74.2597L98.1087 74.6366V74.8699L96.8643 74.3793V74.14L98.1087 73.6494V73.8768Z" fill="black"/>
<path d="M100.233 73.2905V75.229H99.9575V74.3675H98.8387V75.229H98.5635V73.2905H98.8387V74.1222H99.9575V73.2905H100.233Z" fill="black"/>
<path d="M101.28 73.2905V75.229H101.005V73.5298H100.568V73.2905H101.28Z" fill="black"/>
<path d="M103.002 74.14V74.3793L101.758 74.8699V74.6366L102.745 74.2597L101.758 73.8768V73.6494L103.002 74.14Z" fill="black"/>
<path d="M104.248 73.2905H104.451V75.0555H105.54V75.229H104.248V73.2905Z" fill="black"/>
<path d="M105.671 74.4991C105.672 74.3526 105.717 74.2098 105.799 74.0886C105.881 73.9673 105.997 73.8732 106.133 73.818C106.269 73.7627 106.418 73.7489 106.561 73.7782C106.705 73.8075 106.836 73.8786 106.94 73.9826C107.043 74.0866 107.113 74.2188 107.141 74.3625C107.169 74.5063 107.154 74.6551 107.098 74.7903C107.041 74.9255 106.946 75.0411 106.824 75.1223C106.703 75.2036 106.559 75.2469 106.413 75.2469C106.314 75.2503 106.216 75.2333 106.124 75.1968C106.032 75.1603 105.948 75.1053 105.879 75.035C105.809 74.9648 105.755 74.881 105.719 74.7887C105.683 74.6965 105.667 74.5979 105.671 74.4991ZM106.951 74.4991C106.947 74.3923 106.911 74.2892 106.848 74.2028C106.785 74.1164 106.698 74.0503 106.598 74.013C106.498 73.9756 106.389 73.9685 106.285 73.9926C106.18 74.0168 106.086 74.071 106.012 74.1486C105.939 74.2262 105.89 74.3237 105.871 74.429C105.853 74.5343 105.866 74.6427 105.908 74.7407C105.951 74.8386 106.022 74.9219 106.111 74.98C106.201 75.0381 106.306 75.0685 106.413 75.0675C106.486 75.0684 106.559 75.0542 106.627 75.0256C106.695 74.997 106.756 74.9546 106.807 74.9012C106.857 74.8478 106.896 74.7845 106.921 74.7153C106.946 74.6461 106.956 74.5725 106.951 74.4991Z" fill="black"/>
<path d="M108.292 73.7572V73.9487H108.244C108.174 73.9453 108.105 73.9574 108.041 73.984C107.976 74.0105 107.919 74.051 107.872 74.1024C107.825 74.1539 107.79 74.215 107.769 74.2815C107.749 74.348 107.743 74.4182 107.753 74.4871V75.229H107.556V73.7692H107.741V74.0563C107.796 73.9605 107.877 73.8818 107.974 73.829C108.071 73.7762 108.181 73.7513 108.292 73.7572Z" fill="black"/>
<path d="M109.902 74.5588H108.705C108.71 74.632 108.729 74.7035 108.762 74.7691C108.794 74.8347 108.84 74.893 108.896 74.9405C108.952 74.988 109.017 75.0237 109.087 75.0455C109.157 75.0673 109.231 75.0747 109.303 75.0673C109.388 75.0688 109.471 75.0524 109.548 75.0194C109.626 74.9865 109.695 74.9375 109.752 74.8759L109.86 75.0075C109.79 75.0867 109.703 75.1492 109.606 75.1906C109.508 75.232 109.403 75.2512 109.297 75.2468C109.197 75.2527 109.096 75.2376 109.002 75.2023C108.907 75.167 108.821 75.1125 108.749 75.0421C108.677 74.9717 108.621 74.887 108.583 74.7935C108.546 74.7 108.528 74.5997 108.532 74.499C108.527 74.4028 108.542 74.3066 108.575 74.2164C108.609 74.1261 108.661 74.0437 108.727 73.9742C108.794 73.9047 108.874 73.8496 108.963 73.8123C109.052 73.7749 109.147 73.7562 109.244 73.7571C109.34 73.7552 109.436 73.7734 109.525 73.8105C109.613 73.8476 109.694 73.9028 109.76 73.9725C109.826 74.0423 109.878 74.1252 109.91 74.2158C109.943 74.3064 109.956 74.4029 109.95 74.499L109.902 74.5588ZM108.705 74.4152H109.74C109.726 74.2876 109.666 74.1695 109.571 74.0837C109.475 73.9979 109.351 73.9504 109.223 73.9504C109.094 73.9504 108.97 73.9979 108.875 74.0837C108.779 74.1695 108.719 74.2876 108.705 74.4152Z" fill="black"/>
<path d="M112.713 74.3853V75.2289H112.516V74.4032C112.516 74.0981 112.36 73.9365 112.097 73.9365C112.029 73.9333 111.961 73.9451 111.898 73.9711C111.835 73.997 111.778 74.0365 111.732 74.0867C111.686 74.1369 111.651 74.1966 111.63 74.2616C111.61 74.3266 111.604 74.3954 111.613 74.463V75.2289H111.415V74.4032C111.415 74.0981 111.26 73.9365 110.99 73.9365C110.922 73.9335 110.854 73.9453 110.79 73.9712C110.727 73.9971 110.67 74.0364 110.623 74.0865C110.577 74.1366 110.542 74.1962 110.52 74.2612C110.499 74.3262 110.492 74.3951 110.5 74.463V75.2289H110.302V73.769H110.494V74.0383C110.55 73.9476 110.63 73.8737 110.725 73.8242C110.819 73.7748 110.925 73.7516 111.032 73.7571C111.139 73.7502 111.246 73.7763 111.338 73.8319C111.43 73.8876 111.503 73.97 111.547 74.0682C111.608 73.9658 111.696 73.8824 111.802 73.8275C111.907 73.7725 112.026 73.7481 112.145 73.7571C112.226 73.7546 112.306 73.7698 112.38 73.8013C112.454 73.8329 112.52 73.8802 112.574 73.9399C112.628 73.9997 112.669 74.0704 112.693 74.1473C112.717 74.2242 112.724 74.3054 112.713 74.3853Z" fill="black"/>
<path d="M113.927 73.3083C113.929 73.2712 113.945 73.2362 113.971 73.2106C113.998 73.1849 114.034 73.1706 114.071 73.1707C114.089 73.1699 114.108 73.1728 114.125 73.1794C114.143 73.1859 114.159 73.1959 114.172 73.2088C114.185 73.2216 114.196 73.2371 114.203 73.2542C114.211 73.2713 114.214 73.2897 114.214 73.3083C114.214 73.3463 114.199 73.3829 114.172 73.4098C114.145 73.4367 114.109 73.4519 114.071 73.4519C114.033 73.4519 113.996 73.4367 113.969 73.4098C113.942 73.3829 113.927 73.3463 113.927 73.3083ZM113.969 73.769H114.167V75.2288H113.993L113.969 73.769Z" fill="black"/>
<path d="M116.195 74.499C116.2 74.5965 116.185 74.694 116.151 74.7854C116.116 74.8768 116.063 74.9601 115.996 75.0302C115.928 75.1004 115.846 75.1558 115.756 75.1931C115.666 75.2303 115.569 75.2487 115.471 75.2469C115.361 75.2506 115.252 75.2256 115.154 75.1742C115.056 75.1227 114.974 75.0468 114.915 74.9537V75.7674H114.717V73.7691H114.909V74.0563C114.968 73.9617 115.051 73.8843 115.15 73.8318C115.249 73.7793 115.359 73.7536 115.471 73.7572C115.568 73.7546 115.665 73.7721 115.755 73.8087C115.846 73.8453 115.927 73.9002 115.995 73.9698C116.063 74.0395 116.116 74.1225 116.15 74.2136C116.185 74.3046 116.2 74.4018 116.195 74.499ZM116.004 74.499C116.004 74.3546 115.946 74.2162 115.844 74.1141C115.742 74.012 115.604 73.9546 115.459 73.9546C115.315 73.9546 115.176 74.012 115.074 74.1141C114.972 74.2162 114.915 74.3546 114.915 74.499C114.915 74.6434 114.972 74.7819 115.074 74.884C115.176 74.9861 115.315 75.0435 115.459 75.0435C115.604 75.0435 115.742 74.9861 115.844 74.884C115.946 74.7819 116.004 74.6434 116.004 74.499Z" fill="black"/>
<path d="M116.386 75.0613L116.476 74.9058C116.627 75.0159 116.81 75.0746 116.996 75.0733C117.272 75.0733 117.385 74.9776 117.385 74.834C117.385 74.4511 116.44 74.7502 116.44 74.1758C116.44 73.9365 116.649 73.757 117.038 73.757C117.219 73.7546 117.397 73.8022 117.553 73.8947L117.469 74.0562C117.342 73.9716 117.191 73.9277 117.038 73.9305C116.775 73.9305 116.655 74.0323 116.655 74.1699C116.655 74.5647 117.601 74.2656 117.601 74.828C117.601 75.0793 117.379 75.2468 117.002 75.2468C116.782 75.2584 116.564 75.1929 116.386 75.0613Z" fill="black"/>
<path d="M119.27 73.7692V75.229H119.079V74.9657C119.024 75.0537 118.947 75.1259 118.856 75.1752C118.765 75.2245 118.662 75.2492 118.558 75.2469C118.476 75.2528 118.393 75.2404 118.315 75.2104C118.238 75.1805 118.168 75.1339 118.111 75.0738C118.054 75.0138 118.011 74.9419 117.985 74.8632C117.959 74.7845 117.95 74.701 117.96 74.6187V73.7692H118.158V74.5948C118.158 74.9059 118.313 75.0675 118.594 75.0675C118.664 75.0716 118.733 75.0603 118.798 75.0344C118.862 75.0086 118.92 74.9688 118.968 74.918C119.015 74.8671 119.051 74.8064 119.072 74.7402C119.093 74.674 119.1 74.6039 119.091 74.535V73.7692H119.27Z" fill="black"/>
<path d="M122.225 74.3854V75.229H122.034V74.4033C122.034 74.0982 121.878 73.9367 121.609 73.9367C121.541 73.9335 121.473 73.9452 121.41 73.9712C121.347 73.9971 121.29 74.0366 121.244 74.0868C121.198 74.137 121.163 74.1967 121.143 74.2617C121.122 74.3267 121.116 74.3955 121.125 74.4632V75.229H120.927V74.4033C120.927 74.0982 120.772 73.9367 120.502 73.9367C120.435 73.9345 120.367 73.947 120.304 73.9733C120.242 73.9995 120.186 74.039 120.14 74.089C120.094 74.1389 120.059 74.1982 120.038 74.2628C120.017 74.3274 120.01 74.3957 120.018 74.4632V75.229H119.82V73.7691H120.006V74.0384C120.062 73.9477 120.142 73.8738 120.237 73.8243C120.331 73.7749 120.438 73.7517 120.544 73.7572C120.652 73.7499 120.76 73.7758 120.853 73.8314C120.946 73.887 121.02 73.9696 121.065 74.0683C121.122 73.9623 121.209 73.8759 121.316 73.8204C121.423 73.7649 121.544 73.7429 121.663 73.7572C121.743 73.7556 121.822 73.7714 121.896 73.8033C121.969 73.8353 122.035 73.8827 122.088 73.9424C122.142 74.002 122.182 74.0724 122.205 74.1489C122.229 74.2253 122.236 74.306 122.225 74.3854Z" fill="black"/>
<path d="M124.817 73.1709V75.229H124.631V74.9418C124.573 75.038 124.49 75.1169 124.391 75.1705C124.292 75.2241 124.181 75.2505 124.069 75.247C123.883 75.2303 123.71 75.1446 123.584 75.0067C123.458 74.8689 123.388 74.6889 123.388 74.5021C123.388 74.3153 123.458 74.1353 123.584 73.9975C123.71 73.8596 123.883 73.7739 124.069 73.7572C124.179 73.7541 124.288 73.7794 124.385 73.8308C124.483 73.8821 124.565 73.9578 124.625 74.0504V73.1709H124.817ZM124.625 74.4991C124.62 74.3923 124.584 74.2893 124.522 74.2028C124.459 74.1164 124.372 74.0503 124.272 74.013C124.171 73.9756 124.062 73.9685 123.958 73.9927C123.854 74.0168 123.759 74.071 123.686 74.1486C123.612 74.2262 123.563 74.3237 123.545 74.429C123.527 74.5343 123.539 74.6427 123.582 74.7407C123.625 74.8387 123.696 74.9219 123.785 74.98C123.875 75.0381 123.98 75.0685 124.087 75.0675C124.16 75.0685 124.233 75.0542 124.301 75.0256C124.369 74.997 124.43 74.9547 124.48 74.9013C124.531 74.8479 124.57 74.7846 124.595 74.7153C124.62 74.6461 124.63 74.5725 124.625 74.4991Z" fill="black"/>
<path d="M125.217 74.499C125.217 74.3511 125.261 74.2065 125.343 74.0835C125.425 73.9605 125.542 73.8646 125.678 73.808C125.815 73.7514 125.965 73.7366 126.11 73.7655C126.256 73.7943 126.389 73.8655 126.493 73.9701C126.598 74.0747 126.669 74.208 126.698 74.3531C126.727 74.4981 126.712 74.6485 126.656 74.7852C126.599 74.9218 126.503 75.0386 126.38 75.1208C126.257 75.203 126.112 75.2468 125.965 75.2468C125.865 75.2502 125.767 75.2331 125.674 75.1967C125.582 75.1603 125.498 75.1053 125.428 75.0352C125.358 74.9651 125.303 74.8813 125.267 74.7891C125.23 74.6968 125.213 74.5981 125.217 74.499ZM126.503 74.499C126.498 74.3922 126.462 74.2891 126.399 74.2027C126.337 74.1162 126.25 74.0502 126.149 74.0128C126.049 73.9755 125.94 73.9684 125.836 73.9925C125.732 74.0166 125.637 74.0709 125.564 74.1485C125.49 74.2261 125.441 74.3236 125.423 74.4289C125.404 74.5342 125.417 74.6426 125.46 74.7406C125.503 74.8385 125.573 74.9218 125.663 74.9799C125.753 75.038 125.858 75.0684 125.965 75.0673C126.038 75.0683 126.111 75.0541 126.179 75.0255C126.247 74.9969 126.308 74.9545 126.358 74.9011C126.409 74.8477 126.448 74.7844 126.473 74.7152C126.498 74.646 126.508 74.5724 126.503 74.499Z" fill="black"/>
<path d="M127.108 73.1709H127.299V75.229H127.108V73.1709Z" fill="black"/>
<path d="M127.707 74.4991C127.708 74.3526 127.752 74.2098 127.835 74.0886C127.917 73.9673 128.033 73.8732 128.169 73.818C128.304 73.7627 128.453 73.7489 128.597 73.7782C128.74 73.8075 128.872 73.8786 128.975 73.9826C129.078 74.0866 129.148 74.2188 129.177 74.3625C129.205 74.5063 129.19 74.6551 129.133 74.7903C129.077 74.9255 128.982 75.0411 128.86 75.1223C128.738 75.2036 128.595 75.2469 128.449 75.2469C128.35 75.2503 128.251 75.2333 128.159 75.1968C128.067 75.1603 127.984 75.1053 127.914 75.035C127.845 74.9648 127.79 74.881 127.755 74.7887C127.719 74.6965 127.703 74.5979 127.707 74.4991ZM128.987 74.4991C128.982 74.3923 128.946 74.2892 128.883 74.2028C128.821 74.1164 128.734 74.0503 128.633 74.013C128.533 73.9756 128.424 73.9685 128.32 73.9926C128.216 74.0168 128.121 74.071 128.048 74.1486C127.974 74.2262 127.925 74.3237 127.907 74.429C127.888 74.5343 127.901 74.6427 127.944 74.7407C127.987 74.8386 128.057 74.9219 128.147 74.98C128.237 75.0381 128.342 75.0685 128.449 75.0675C128.522 75.0684 128.595 75.0542 128.663 75.0256C128.731 74.997 128.792 74.9546 128.842 74.9012C128.893 74.8478 128.932 74.7845 128.957 74.7153C128.982 74.6461 128.992 74.5725 128.987 74.4991Z" fill="black"/>
<path d="M130.327 73.7572V73.9487H130.279C130.21 73.9453 130.14 73.9574 130.076 73.984C130.012 74.0105 129.954 74.051 129.907 74.1024C129.86 74.1539 129.826 74.215 129.805 74.2815C129.785 74.348 129.779 74.4182 129.789 74.4871V75.229H129.591V73.7692H129.777V74.0563C129.832 73.9605 129.913 73.8818 130.01 73.829C130.107 73.7762 130.217 73.7513 130.327 73.7572Z" fill="black"/>
<path d="M98.055 77.6521V78.5556H97.8695V78.3282C97.8148 78.4098 97.7396 78.4755 97.6513 78.5186C97.563 78.5617 97.4649 78.5806 97.3669 78.5735C97.0379 78.5735 96.8345 78.4 96.8345 78.1487C96.8345 77.8974 96.9781 77.7359 97.3969 77.7359H97.8396V77.6462C97.8396 77.3949 97.702 77.2573 97.4268 77.2573C97.2496 77.2549 97.0775 77.3165 96.9422 77.4308L96.8524 77.2812C97.0229 77.148 97.2344 77.0782 97.4507 77.0838C97.5301 77.0691 97.6119 77.0733 97.6894 77.0961C97.7669 77.1189 97.8379 77.1596 97.8968 77.2149C97.9556 77.2703 98.0006 77.3387 98.0281 77.4147C98.0556 77.4906 98.0648 77.572 98.055 77.6521ZM97.8575 78.1188V77.8795H97.4028C97.1216 77.8795 97.0259 77.9932 97.0259 78.1427C97.0259 78.2923 97.1635 78.418 97.3969 78.418C97.4924 78.4194 97.5861 78.3915 97.6653 78.338C97.7445 78.2845 97.8053 78.208 97.8396 78.1188H97.8575Z" fill="black"/>
<path d="M99.9271 76.4973V78.5554H99.7416V78.2682C99.6823 78.3649 99.5985 78.444 99.4986 78.4976C99.3988 78.5513 99.2865 78.5774 99.1732 78.5734C98.9872 78.5567 98.8141 78.471 98.6881 78.3331C98.5621 78.1953 98.4922 78.0153 98.4922 77.8285C98.4922 77.6417 98.5621 77.4617 98.6881 77.3239C98.8141 77.186 98.9872 77.1003 99.1732 77.0836C99.2835 77.0799 99.3927 77.105 99.4903 77.1564C99.5879 77.2078 99.6704 77.2838 99.7296 77.3768V76.4973H99.9271ZM99.7356 77.8255C99.7309 77.719 99.6951 77.6162 99.6325 77.5298C99.5699 77.4435 99.4833 77.3775 99.3835 77.3399C99.2837 77.3023 99.175 77.2949 99.071 77.3185C98.967 77.3422 98.8723 77.3958 98.7985 77.4728C98.7248 77.5498 98.6752 77.6468 98.6561 77.7517C98.637 77.8566 98.649 77.9649 98.6909 78.063C98.7327 78.1611 98.8024 78.2447 98.8913 78.3035C98.9803 78.3624 99.0845 78.3938 99.1912 78.3939C99.2652 78.3957 99.3388 78.3821 99.4073 78.3539C99.4758 78.3256 99.5376 78.2834 99.5889 78.2299C99.6401 78.1764 99.6796 78.1128 99.7049 78.0432C99.7302 77.9736 99.7406 77.8994 99.7356 77.8255Z" fill="black"/>
<path d="M100.43 76.635C100.432 76.598 100.448 76.563 100.474 76.5374C100.501 76.5117 100.537 76.4974 100.574 76.4974C100.593 76.4966 100.611 76.4996 100.629 76.5061C100.647 76.5125 100.663 76.5224 100.677 76.5352C100.691 76.548 100.702 76.5634 100.71 76.5805C100.718 76.5977 100.723 76.6162 100.723 76.635C100.716 76.6689 100.698 76.6993 100.671 76.7211C100.645 76.7429 100.611 76.7549 100.577 76.7549C100.542 76.7549 100.509 76.7429 100.482 76.7211C100.455 76.6993 100.437 76.6689 100.43 76.635ZM100.478 77.0957H100.675V78.5556H100.478V77.0957Z" fill="black"/>
<path d="M102.703 77.8255C102.708 77.9235 102.693 78.0214 102.658 78.1132C102.624 78.205 102.57 78.2887 102.502 78.3589C102.433 78.4291 102.351 78.4844 102.26 78.5213C102.169 78.5582 102.072 78.5759 101.974 78.5733C101.863 78.5765 101.754 78.5511 101.657 78.4998C101.559 78.4484 101.477 78.3728 101.417 78.2802V79.0938H101.22V77.0955H101.429V77.3887C101.487 77.2926 101.57 77.2136 101.669 77.16C101.768 77.1064 101.879 77.08 101.992 77.0836C102.088 77.0835 102.183 77.1028 102.271 77.1405C102.359 77.1781 102.439 77.2332 102.506 77.3026C102.572 77.3719 102.624 77.4539 102.658 77.5438C102.692 77.6337 102.708 77.7295 102.703 77.8255ZM102.506 77.8255C102.506 77.6811 102.449 77.5426 102.347 77.4405C102.244 77.3384 102.106 77.281 101.962 77.281C101.817 77.281 101.679 77.3384 101.577 77.4405C101.475 77.5426 101.417 77.6811 101.417 77.8255C101.417 77.9698 101.475 78.1083 101.577 78.2104C101.679 78.3125 101.817 78.3699 101.962 78.3699C102.106 78.3699 102.244 78.3125 102.347 78.2104C102.449 78.1083 102.506 77.9698 102.506 77.8255Z" fill="black"/>
<path d="M103.057 76.635C103.058 76.598 103.074 76.563 103.101 76.5374C103.128 76.5117 103.163 76.4974 103.2 76.4974C103.219 76.4966 103.237 76.4996 103.255 76.5062C103.272 76.5127 103.288 76.5227 103.301 76.5356C103.315 76.5484 103.326 76.5639 103.333 76.581C103.34 76.5981 103.344 76.6165 103.344 76.635C103.344 76.6539 103.34 76.6726 103.333 76.69C103.326 76.7074 103.315 76.7233 103.302 76.7366C103.288 76.7499 103.273 76.7605 103.255 76.7677C103.238 76.7749 103.219 76.7786 103.2 76.7786C103.181 76.7786 103.163 76.7749 103.145 76.7677C103.128 76.7605 103.112 76.7499 103.099 76.7366C103.085 76.7233 103.075 76.7074 103.068 76.69C103.06 76.6726 103.057 76.6539 103.057 76.635ZM103.104 77.0957H103.302V78.5556H103.104V77.0957Z" fill="black"/>
<path d="M103.643 78.394L103.733 78.2385C103.884 78.3486 104.066 78.4073 104.253 78.406C104.529 78.406 104.642 78.3103 104.642 78.1667C104.642 77.7838 103.697 78.0829 103.697 77.5086C103.697 77.2692 103.9 77.0898 104.295 77.0898C104.476 77.0882 104.654 77.1358 104.81 77.2274L104.726 77.3889C104.598 77.3043 104.448 77.2604 104.295 77.2633C104.032 77.2633 103.912 77.365 103.912 77.5026C103.912 77.8974 104.858 77.5983 104.858 78.1607C104.858 78.412 104.636 78.5795 104.259 78.5795C104.039 78.5911 103.821 78.5256 103.643 78.394Z" fill="black"/>
<path d="M105.055 77.8255C105.052 77.7262 105.069 77.6272 105.106 77.5348C105.143 77.4424 105.198 77.3587 105.269 77.289C105.34 77.2192 105.425 77.165 105.517 77.1296C105.61 77.0943 105.71 77.0786 105.809 77.0837C105.926 77.0742 106.043 77.0965 106.148 77.1481C106.254 77.1997 106.343 77.2787 106.407 77.3768L106.258 77.4726C106.21 77.4047 106.146 77.3496 106.072 77.3121C105.998 77.2745 105.916 77.2557 105.833 77.2572C105.713 77.2965 105.609 77.3726 105.535 77.4747C105.461 77.5768 105.421 77.6995 105.421 77.8255C105.421 77.9515 105.461 78.0743 105.535 78.1764C105.609 78.2784 105.713 78.3546 105.833 78.3939C105.915 78.3966 105.997 78.3789 106.072 78.3424C106.146 78.3059 106.21 78.2516 106.258 78.1845L106.407 78.2802C106.343 78.3784 106.254 78.4574 106.148 78.509C106.043 78.5606 105.926 78.5828 105.809 78.5734C105.709 78.5776 105.61 78.5611 105.517 78.5251C105.424 78.4891 105.34 78.4342 105.269 78.364C105.198 78.2938 105.142 78.2098 105.106 78.1171C105.069 78.0244 105.052 77.9252 105.055 77.8255Z" fill="black"/>
<path d="M106.718 76.635C106.719 76.598 106.735 76.563 106.762 76.5374C106.789 76.5117 106.824 76.4974 106.861 76.4974C106.88 76.4966 106.898 76.4996 106.916 76.5062C106.933 76.5127 106.949 76.5227 106.963 76.5356C106.976 76.5484 106.987 76.5639 106.994 76.581C107.001 76.5981 107.005 76.6165 107.005 76.635C107.005 76.6539 107.001 76.6726 106.994 76.69C106.987 76.7074 106.976 76.7233 106.963 76.7366C106.95 76.7499 106.934 76.7605 106.916 76.7677C106.899 76.7749 106.88 76.7786 106.861 76.7786C106.843 76.7786 106.824 76.7749 106.806 76.7677C106.789 76.7605 106.773 76.7499 106.76 76.7366C106.747 76.7233 106.736 76.7074 106.729 76.69C106.721 76.6726 106.718 76.6539 106.718 76.635ZM106.766 77.0957H106.963V78.5556H106.766V77.0957Z" fill="black"/>
<path d="M108.853 77.7119V78.5555H108.656V77.7299C108.665 77.669 108.661 77.6069 108.642 77.5481C108.624 77.4894 108.593 77.4355 108.551 77.3906C108.509 77.3456 108.457 77.3108 108.4 77.2888C108.342 77.2667 108.281 77.258 108.219 77.2632C108.149 77.2575 108.079 77.2674 108.013 77.292C107.947 77.3167 107.888 77.3555 107.839 77.4057C107.789 77.456 107.752 77.5165 107.729 77.5828C107.706 77.6492 107.697 77.7198 107.705 77.7897V78.5555H107.507V77.0957H107.699V77.3649C107.757 77.2714 107.839 77.1957 107.937 77.1461C108.036 77.0965 108.146 77.0749 108.255 77.0837C108.338 77.0778 108.421 77.0903 108.498 77.1202C108.575 77.1501 108.645 77.1968 108.702 77.2568C108.76 77.3169 108.803 77.3888 108.829 77.4675C108.855 77.5461 108.863 77.6296 108.853 77.7119Z" fill="black"/>
<path d="M110.745 77.0955V78.3938C110.76 78.4932 110.752 78.5947 110.72 78.6902C110.689 78.7857 110.636 78.8726 110.565 78.9436C110.493 79.0147 110.407 79.0681 110.311 79.0993C110.216 79.1306 110.114 79.139 110.015 79.1237C109.767 79.1324 109.525 79.0517 109.333 78.8964L109.434 78.7468C109.601 78.8863 109.815 78.9569 110.033 78.9442C110.404 78.9442 110.571 78.7767 110.571 78.4177V78.2323C110.508 78.3232 110.422 78.3967 110.323 78.4458C110.224 78.495 110.113 78.5183 110.003 78.5135C109.904 78.5225 109.805 78.5109 109.711 78.4794C109.617 78.4479 109.531 78.3972 109.458 78.3305C109.385 78.2638 109.326 78.1825 109.286 78.092C109.246 78.0014 109.226 77.9035 109.226 77.8045C109.226 77.7055 109.246 77.6076 109.286 77.517C109.326 77.4265 109.385 77.3452 109.458 77.2785C109.531 77.2118 109.617 77.1611 109.711 77.1296C109.805 77.098 109.904 77.0865 110.003 77.0955C110.12 77.0861 110.237 77.1083 110.342 77.1599C110.447 77.2115 110.537 77.2906 110.601 77.3887V77.1075L110.745 77.0955ZM110.553 77.7895C110.557 77.6788 110.527 77.5695 110.468 77.4757C110.409 77.3818 110.324 77.3077 110.222 77.2629C110.121 77.218 110.009 77.2044 109.9 77.2238C109.791 77.2432 109.69 77.2947 109.61 77.3718C109.53 77.4488 109.476 77.5479 109.453 77.6563C109.43 77.7647 109.44 77.8774 109.481 77.9802C109.523 78.0829 109.594 78.1709 109.686 78.2328C109.778 78.2948 109.886 78.3279 109.997 78.328C110.069 78.333 110.142 78.3229 110.21 78.2982C110.278 78.2736 110.34 78.2349 110.393 78.1848C110.445 78.1347 110.486 78.0741 110.514 78.0071C110.542 77.9401 110.555 77.868 110.553 77.7955V77.7895Z" fill="black"/>
<path d="M113.294 77.8913H112.097C112.101 77.9646 112.119 78.0364 112.152 78.1021C112.184 78.1678 112.23 78.2261 112.286 78.2733C112.343 78.3205 112.408 78.3556 112.478 78.3763C112.549 78.3971 112.623 78.403 112.695 78.3939C112.779 78.3972 112.862 78.3818 112.939 78.3486C113.015 78.3155 113.083 78.2655 113.138 78.2024L113.252 78.3341C113.147 78.4436 113.012 78.5197 112.864 78.5528C112.715 78.586 112.561 78.5747 112.419 78.5204C112.277 78.4661 112.155 78.3713 112.067 78.2477C111.978 78.1241 111.929 77.9772 111.924 77.8255C111.918 77.7291 111.932 77.6325 111.965 77.5419C111.999 77.4513 112.05 77.3685 112.117 77.2988C112.184 77.2291 112.265 77.1741 112.354 77.137C112.443 77.1 112.539 77.0818 112.636 77.0836C112.732 77.0817 112.828 77.0999 112.916 77.137C113.005 77.1741 113.086 77.2293 113.152 77.2991C113.218 77.3689 113.27 77.4517 113.302 77.5423C113.335 77.633 113.348 77.7294 113.342 77.8255L113.294 77.8913ZM112.097 77.7418H113.132C113.118 77.6141 113.058 77.496 112.962 77.4102C112.867 77.3244 112.743 77.277 112.615 77.277C112.486 77.277 112.362 77.3244 112.267 77.4102C112.171 77.496 112.111 77.6141 112.097 77.7418Z" fill="black"/>
<path d="M113.694 76.4973H113.892V78.5554H113.694V76.4973Z" fill="black"/>
<path d="M114.394 76.635C114.396 76.598 114.411 76.563 114.438 76.5374C114.465 76.5117 114.501 76.4974 114.538 76.4974C114.556 76.4966 114.575 76.4996 114.593 76.5061C114.611 76.5125 114.627 76.5224 114.641 76.5352C114.655 76.548 114.666 76.5634 114.674 76.5805C114.682 76.5977 114.686 76.6162 114.687 76.635C114.68 76.6689 114.662 76.6993 114.635 76.7211C114.609 76.7429 114.575 76.7549 114.541 76.7549C114.506 76.7549 114.473 76.7429 114.446 76.7211C114.419 76.6993 114.401 76.6689 114.394 76.635ZM114.442 77.0957H114.639V78.5556H114.442V77.0957Z" fill="black"/>
<path d="M115.956 78.4656C115.871 78.5377 115.763 78.576 115.651 78.5733C115.593 78.5798 115.535 78.5734 115.48 78.5544C115.425 78.5355 115.376 78.5045 115.334 78.4638C115.293 78.4231 115.261 78.3736 115.242 78.3191C115.222 78.2645 115.215 78.2062 115.22 78.1485V77.2631H114.957V77.0955H115.22V76.7784H115.418V77.0955H115.86V77.2631H115.418V78.1366C115.413 78.1712 115.416 78.2064 115.427 78.2396C115.438 78.2728 115.456 78.3032 115.48 78.3284C115.504 78.3537 115.534 78.3732 115.567 78.3856C115.599 78.3979 115.634 78.4028 115.669 78.3998C115.747 78.4027 115.824 78.3772 115.884 78.328L115.956 78.4656Z" fill="black"/>
<path d="M116.506 78.3938C116.506 78.4496 116.494 78.5047 116.47 78.5554L116.351 78.9383H116.219L116.315 78.5374C116.284 78.5282 116.258 78.509 116.239 78.483C116.221 78.457 116.212 78.4257 116.213 78.3938C116.213 78.3542 116.229 78.3161 116.257 78.2881C116.285 78.26 116.323 78.2443 116.363 78.2443C116.382 78.2442 116.401 78.2482 116.419 78.2557C116.437 78.2633 116.453 78.2744 116.466 78.2884C116.48 78.3024 116.49 78.3189 116.497 78.337C116.504 78.3552 116.507 78.3745 116.506 78.3938Z" fill="black"/>
<path d="M117.452 78.3941L117.541 78.2385C117.691 78.3506 117.875 78.4095 118.062 78.406C118.337 78.406 118.451 78.3103 118.451 78.1667C118.451 77.7838 117.506 78.083 117.506 77.5086C117.506 77.2693 117.709 77.0898 118.104 77.0898C118.287 77.0875 118.467 77.1351 118.624 77.2274L118.535 77.3889C118.407 77.3036 118.257 77.2597 118.104 77.2633C117.841 77.2633 117.727 77.365 117.727 77.5026C117.727 77.8975 118.672 77.5983 118.672 78.1607C118.672 78.412 118.451 78.5795 118.074 78.5795C117.851 78.5931 117.631 78.5274 117.452 78.3941Z" fill="black"/>
<path d="M120.282 77.8913H119.085C119.09 77.964 119.11 78.0349 119.143 78.0998C119.176 78.1647 119.222 78.2223 119.278 78.2691C119.334 78.316 119.398 78.3512 119.468 78.3726C119.537 78.3941 119.611 78.4013 119.683 78.3939C119.767 78.3953 119.851 78.379 119.928 78.346C120.005 78.313 120.075 78.2641 120.132 78.2024L120.24 78.3341C120.135 78.4436 119.999 78.5197 119.851 78.5528C119.703 78.586 119.549 78.5747 119.407 78.5204C119.265 78.4661 119.142 78.3713 119.054 78.2477C118.966 78.1241 118.917 77.9772 118.911 77.8255C118.906 77.7291 118.92 77.6325 118.953 77.5419C118.987 77.4513 119.038 77.3685 119.105 77.2988C119.172 77.2291 119.253 77.1741 119.342 77.137C119.431 77.1 119.527 77.0818 119.623 77.0836C119.72 77.0817 119.815 77.0999 119.904 77.137C119.993 77.1741 120.073 77.2293 120.14 77.2991C120.206 77.3689 120.257 77.4517 120.29 77.5423C120.323 77.633 120.336 77.7294 120.329 77.8255L120.282 77.8913ZM119.085 77.7418H120.12C120.106 77.6141 120.046 77.496 119.95 77.4102C119.855 77.3244 119.731 77.277 119.602 77.277C119.474 77.277 119.35 77.3244 119.255 77.4102C119.159 77.496 119.099 77.6141 119.085 77.7418Z" fill="black"/>
<path d="M122.017 76.4973V78.5554H121.825V78.2682C121.77 78.3671 121.688 78.4483 121.588 78.5023C121.489 78.5563 121.376 78.581 121.263 78.5734C121.077 78.5567 120.904 78.471 120.778 78.3331C120.652 78.1953 120.582 78.0153 120.582 77.8285C120.582 77.6417 120.652 77.4617 120.778 77.3239C120.904 77.186 121.077 77.1003 121.263 77.0836C121.373 77.0799 121.483 77.105 121.58 77.1564C121.678 77.2078 121.76 77.2838 121.819 77.3768V76.4973H122.017ZM121.825 77.8255C121.821 77.719 121.785 77.6162 121.722 77.5298C121.66 77.4435 121.573 77.3775 121.473 77.3399C121.374 77.3023 121.265 77.2949 121.161 77.3185C121.057 77.3422 120.962 77.3958 120.888 77.4728C120.815 77.5498 120.765 77.6468 120.746 77.7517C120.727 77.8566 120.739 77.9649 120.781 78.063C120.823 78.1611 120.892 78.2447 120.981 78.3035C121.07 78.3624 121.174 78.3938 121.281 78.3939C121.355 78.3957 121.429 78.3821 121.497 78.3539C121.566 78.3256 121.627 78.2834 121.679 78.2299C121.73 78.1764 121.769 78.1128 121.795 78.0432C121.82 77.9736 121.83 77.8994 121.825 77.8255Z" fill="black"/>
<path d="M124.625 76.4973V78.5554H124.433V78.2682C124.375 78.3644 124.292 78.4433 124.193 78.4969C124.095 78.5506 123.983 78.5769 123.871 78.5734C123.685 78.5567 123.512 78.471 123.386 78.3331C123.26 78.1953 123.19 78.0153 123.19 77.8285C123.19 77.6417 123.26 77.4617 123.386 77.3239C123.512 77.186 123.685 77.1003 123.871 77.0836C123.981 77.0805 124.09 77.1058 124.188 77.1572C124.285 77.2085 124.368 77.2842 124.427 77.3768V76.4973H124.625ZM124.427 77.8255C124.423 77.7187 124.387 77.6157 124.324 77.5292C124.261 77.4428 124.174 77.3768 124.074 77.3394C123.974 77.302 123.865 77.295 123.761 77.3191C123.656 77.3432 123.562 77.3974 123.488 77.475C123.415 77.5526 123.366 77.6502 123.347 77.7554C123.329 77.8607 123.342 77.9691 123.384 78.0671C123.427 78.1651 123.498 78.2483 123.587 78.3064C123.677 78.3645 123.782 78.395 123.889 78.3939C123.962 78.3949 124.035 78.3806 124.103 78.352C124.171 78.3234 124.232 78.2811 124.283 78.2277C124.333 78.1743 124.372 78.111 124.397 78.0418C124.422 77.9725 124.432 77.8989 124.427 77.8255Z" fill="black"/>
<path d="M125.127 76.635C125.127 76.6066 125.136 76.5789 125.151 76.5553C125.167 76.5317 125.189 76.5133 125.216 76.5024C125.242 76.4915 125.271 76.4887 125.299 76.4942C125.327 76.4998 125.352 76.5134 125.372 76.5335C125.392 76.5536 125.406 76.5792 125.412 76.607C125.417 76.6349 125.414 76.6638 125.403 76.69C125.392 76.7162 125.374 76.7387 125.35 76.7544C125.327 76.7702 125.299 76.7786 125.271 76.7786C125.252 76.7795 125.233 76.7763 125.215 76.7694C125.197 76.7625 125.181 76.752 125.167 76.7385C125.154 76.725 125.143 76.7088 125.136 76.691C125.129 76.6732 125.126 76.6541 125.127 76.635ZM125.169 77.0957H125.36V78.5556H125.163L125.169 77.0957Z" fill="black"/>
<path d="M127.018 77.652V78.5554H126.827V78.3281C126.773 78.4111 126.698 78.4778 126.61 78.5211C126.521 78.5643 126.422 78.5824 126.324 78.5734C125.995 78.5734 125.792 78.3999 125.792 78.1486C125.792 77.8973 125.935 77.7358 126.354 77.7358H126.821V77.646C126.826 77.5915 126.818 77.5366 126.799 77.4854C126.78 77.4342 126.749 77.388 126.709 77.3505C126.67 77.313 126.622 77.2851 126.569 77.2689C126.517 77.2527 126.462 77.2487 126.408 77.2571C126.23 77.2536 126.058 77.3154 125.923 77.4306L125.833 77.2811C126.003 77.1465 126.215 77.0766 126.432 77.0836C126.51 77.0733 126.589 77.0807 126.663 77.1054C126.738 77.13 126.806 77.1712 126.862 77.2259C126.919 77.2806 126.962 77.3473 126.989 77.4211C127.016 77.4949 127.026 77.5738 127.018 77.652ZM126.821 78.1187V77.8794H126.36C126.079 77.8794 125.989 77.993 125.989 78.1426C125.989 78.2922 126.127 78.4178 126.354 78.4178C126.453 78.4244 126.552 78.3989 126.636 78.345C126.72 78.2912 126.785 78.2119 126.821 78.1187Z" fill="black"/>
<path d="M129.962 77.7119V78.5555H129.764V77.7298C129.764 77.4247 129.609 77.2632 129.346 77.2632C129.277 77.2601 129.209 77.2719 129.146 77.2978C129.082 77.3237 129.025 77.3631 128.979 77.4131C128.932 77.4632 128.897 77.5228 128.876 77.5878C128.854 77.6528 128.847 77.7217 128.855 77.7897V78.5555H128.658V77.7298C128.658 77.4247 128.502 77.2632 128.239 77.2632C128.17 77.2601 128.102 77.2719 128.039 77.2978C127.976 77.3237 127.919 77.3631 127.872 77.4131C127.825 77.4632 127.79 77.5228 127.769 77.5878C127.747 77.6528 127.74 77.7217 127.748 77.7897V78.5555H127.551V77.0956H127.754V77.3649C127.81 77.2751 127.889 77.2018 127.982 77.1524C128.076 77.103 128.181 77.0793 128.287 77.0837C128.395 77.0755 128.503 77.1011 128.596 77.1568C128.689 77.2125 128.763 77.2956 128.807 77.3948C128.867 77.2914 128.955 77.2073 129.061 77.1522C129.167 77.0971 129.287 77.0733 129.405 77.0837C129.485 77.083 129.564 77.0994 129.636 77.1317C129.709 77.1641 129.774 77.2116 129.827 77.2712C129.879 77.3307 129.919 77.4008 129.942 77.4769C129.965 77.5529 129.972 77.633 129.962 77.7119Z" fill="black"/>
<path d="M98.1087 83.8622L97.1275 84.2392L98.1087 84.6221V84.8494L96.8643 84.3588V84.1195L98.1087 83.6289V83.8622Z" fill="black"/>
<path d="M100.155 83.9461C100.155 84.3649 99.8503 84.6222 99.3417 84.6222H98.8631V85.2205H98.5879V83.282H99.3417C99.8503 83.2701 100.155 83.5213 100.155 83.9461ZM99.8742 83.9461C99.8742 83.6709 99.6887 83.5094 99.3358 83.5094H98.8631V84.3769H99.3358C99.6887 84.3769 99.8742 84.2213 99.8742 83.9461Z" fill="black"/>
<path d="M101.722 84.1195V84.3588L100.483 84.8494V84.6221L101.471 84.2392L100.483 83.8622V83.6289L101.722 84.1195Z" fill="black"/>
<path d="M104.085 83.8622L103.098 84.2392L104.085 84.6221V84.8494L102.841 84.3588V84.1195L104.085 83.6289V83.8622Z" fill="black"/>
<path d="M104.559 83.2701H104.84V85.2086H104.559V83.2701Z" fill="black"/>
<path d="M107.22 85.2085V83.7786L106.514 84.9752H106.389L105.683 83.7786V85.1846H105.419V83.2461H105.647L106.454 84.6102L107.256 83.2461H107.484V85.1846L107.22 85.2085Z" fill="black"/>
<path d="M109.411 84.2274H109.68V84.9753C109.47 85.1399 109.21 85.2266 108.944 85.2206C108.782 85.2133 108.625 85.1667 108.485 85.0847C108.346 85.0026 108.228 84.8878 108.143 84.75C108.058 84.6122 108.008 84.4558 107.997 84.2943C107.987 84.1327 108.015 83.971 108.082 83.8232C108.148 83.6754 108.249 83.546 108.376 83.4463C108.504 83.3465 108.654 83.2794 108.813 83.2508C108.972 83.2222 109.136 83.2331 109.29 83.2823C109.445 83.3316 109.584 83.4177 109.698 83.5334L109.524 83.7069C109.451 83.6327 109.363 83.5742 109.267 83.5352C109.17 83.4961 109.066 83.4771 108.962 83.4795C108.763 83.4795 108.573 83.5583 108.433 83.6986C108.293 83.8388 108.214 84.0291 108.214 84.2274C108.214 84.4257 108.293 84.616 108.433 84.7562C108.573 84.8965 108.763 84.9753 108.962 84.9753C109.123 84.9799 109.281 84.9362 109.417 84.8496L109.411 84.2274Z" fill="black"/>
<path d="M110.774 84.9749L110.876 84.7595C111.056 84.9078 111.283 84.9882 111.516 84.9869C111.857 84.9869 112.001 84.8553 112.001 84.6878C112.001 84.2091 110.804 84.5083 110.804 83.7903C110.804 83.4912 111.038 83.2339 111.546 83.2339C111.768 83.2292 111.986 83.2895 112.174 83.4074L112.079 83.6288C111.92 83.5259 111.735 83.4699 111.546 83.4672C111.217 83.4672 111.074 83.6108 111.074 83.7783C111.074 84.251 112.27 83.9578 112.27 84.6698C112.27 84.963 112.031 85.2202 111.516 85.2202C111.248 85.2267 110.986 85.14 110.774 84.9749Z" fill="black"/>
<path d="M113.993 85.2086L113.574 84.6103H112.976V85.2086H112.701V83.2701H113.455C113.963 83.2701 114.268 83.5214 114.268 83.9462C114.274 84.0797 114.234 84.2112 114.156 84.3196C114.078 84.428 113.966 84.5072 113.837 84.5445L114.298 85.1966L113.993 85.2086ZM113.993 83.9462C113.993 83.671 113.808 83.5095 113.455 83.5095H112.982V84.377H113.455C113.778 84.377 113.993 84.2214 113.993 83.9462Z" fill="black"/>
<path d="M114.532 84.2393C114.53 84.1053 114.556 83.9724 114.607 83.8487C114.659 83.725 114.735 83.6132 114.832 83.5202C114.928 83.4271 115.042 83.3548 115.168 83.3077C115.293 83.2606 115.427 83.2396 115.561 83.2462C115.699 83.2407 115.837 83.2652 115.965 83.3178C116.093 83.3705 116.208 83.4501 116.303 83.5513L116.117 83.7248C116.049 83.6488 115.965 83.5886 115.871 83.5483C115.777 83.508 115.675 83.4886 115.573 83.4915C115.375 83.4915 115.184 83.5703 115.044 83.7105C114.904 83.8508 114.825 84.041 114.825 84.2393C114.825 84.4377 114.904 84.6279 115.044 84.7681C115.184 84.9084 115.375 84.9872 115.573 84.9872C115.675 84.9889 115.776 84.969 115.87 84.9288C115.964 84.8885 116.048 84.8289 116.117 84.7539L116.303 84.9274C116.208 85.0285 116.093 85.1082 115.965 85.1608C115.837 85.2135 115.699 85.2379 115.561 85.2325C115.427 85.239 115.293 85.2181 115.168 85.171C115.042 85.1239 114.928 85.0515 114.832 84.9585C114.735 84.8654 114.659 84.7536 114.607 84.6299C114.556 84.5062 114.53 84.3733 114.532 84.2393Z" fill="black"/>
<path d="M116.59 83.7786H117.835V83.9939H116.59V83.7786ZM116.59 84.4367H117.835V84.6521H116.59V84.4367Z" fill="black"/>
<path d="M118.935 83.2701H119.168V84.018H118.971L118.935 83.2701ZM119.438 83.2701H119.671V84.018H119.474L119.438 83.2701Z" fill="black"/>
<path d="M120.138 83.2701H120.413V84.9753H121.466V85.2146H120.138V83.2701Z" fill="black"/>
<path d="M121.592 84.4725C121.59 84.3205 121.633 84.1713 121.715 84.0438C121.798 83.9163 121.917 83.8163 122.057 83.7565C122.196 83.6967 122.351 83.6798 122.5 83.708C122.649 83.7362 122.787 83.8081 122.895 83.9148C123.003 84.0214 123.078 84.1578 123.108 84.3067C123.139 84.4555 123.124 84.6101 123.067 84.7508C123.009 84.8914 122.911 85.0117 122.785 85.0964C122.659 85.1811 122.51 85.2263 122.358 85.2263C122.257 85.2314 122.156 85.2154 122.062 85.1794C121.968 85.1435 121.882 85.0884 121.81 85.0175C121.738 84.9466 121.681 84.8616 121.644 84.7678C121.606 84.674 121.589 84.5734 121.592 84.4725ZM122.849 84.4725C122.856 84.4031 122.849 84.3329 122.828 84.2664C122.807 84.1999 122.771 84.1387 122.725 84.0867C122.678 84.0347 122.621 83.9931 122.558 83.9647C122.494 83.9362 122.425 83.9215 122.355 83.9215C122.285 83.9215 122.216 83.9362 122.152 83.9647C122.089 83.9931 122.032 84.0347 121.985 84.0867C121.939 84.1387 121.903 84.1999 121.882 84.2664C121.861 84.3329 121.854 84.4031 121.861 84.4725C121.854 84.5419 121.861 84.6121 121.882 84.6785C121.903 84.745 121.939 84.8062 121.985 84.8582C122.032 84.9102 122.089 84.9518 122.152 84.9803C122.216 85.0088 122.285 85.0235 122.355 85.0235C122.425 85.0235 122.494 85.0088 122.558 84.9803C122.621 84.9518 122.678 84.9102 122.725 84.8582C122.771 84.8062 122.807 84.745 122.828 84.6785C122.849 84.6121 122.856 84.5419 122.849 84.4725Z" fill="black"/>
<path d="M124.278 83.7246V83.9819H124.218C124.153 83.9779 124.088 83.9882 124.027 84.0122C123.967 84.0361 123.912 84.0732 123.868 84.1206C123.823 84.168 123.79 84.2246 123.769 84.2865C123.749 84.3483 123.743 84.4139 123.751 84.4784V85.2084H123.488V83.7426H123.739V83.9879C123.798 83.9005 123.878 83.8302 123.973 83.7839C124.068 83.7377 124.173 83.7173 124.278 83.7246Z" fill="black"/>
<path d="M125.917 84.5621H124.72C124.737 84.6886 124.801 84.8038 124.9 84.884C125 84.9642 125.126 85.0032 125.253 84.9929C125.332 84.9966 125.411 84.9831 125.484 84.9531C125.558 84.9231 125.624 84.8775 125.678 84.8194L125.827 84.9869C125.718 85.0962 125.579 85.1718 125.428 85.2045C125.276 85.2372 125.119 85.2258 124.974 85.1716C124.829 85.1174 124.703 85.0227 124.61 84.8987C124.517 84.7748 124.462 84.6268 124.451 84.4724C124.448 84.3738 124.465 84.2756 124.501 84.1837C124.537 84.0919 124.591 84.0084 124.661 83.9384C124.73 83.8684 124.813 83.8133 124.905 83.7765C124.996 83.7397 125.094 83.722 125.193 83.7245C125.292 83.7217 125.39 83.7397 125.482 83.7774C125.573 83.8151 125.656 83.8716 125.724 83.9432C125.792 84.0149 125.845 84.1001 125.878 84.1933C125.911 84.2865 125.924 84.3857 125.917 84.4843V84.5621ZM124.72 84.3707H125.666C125.648 84.2582 125.59 84.1559 125.504 84.082C125.417 84.0081 125.307 83.9675 125.193 83.9675C125.079 83.9675 124.969 84.0081 124.882 84.082C124.796 84.1559 124.738 84.2582 124.72 84.3707Z" fill="black"/>
<path d="M128.73 84.3768V85.2204H128.466V84.3768C128.466 84.0896 128.323 83.946 128.083 83.946C127.844 83.946 127.641 84.1135 127.641 84.4366V85.1905H127.377V84.3768C127.377 84.0896 127.24 83.946 126.995 83.946C126.932 83.9437 126.869 83.9551 126.811 83.9796C126.753 84.0042 126.701 84.0411 126.659 84.0879C126.616 84.1347 126.585 84.1901 126.566 84.2504C126.548 84.3107 126.543 84.3742 126.552 84.4366V85.1905H126.289V83.7247H126.558V83.94C126.617 83.8635 126.693 83.8023 126.78 83.7617C126.868 83.7211 126.964 83.7022 127.06 83.7067C127.163 83.699 127.267 83.7208 127.358 83.7696C127.449 83.8183 127.524 83.8919 127.575 83.9819C127.638 83.8929 127.723 83.8212 127.821 83.7731C127.919 83.7251 128.028 83.7023 128.137 83.7067C128.222 83.7069 128.305 83.7251 128.382 83.7599C128.459 83.7947 128.528 83.8454 128.584 83.9088C128.64 83.9721 128.682 84.0465 128.707 84.1272C128.732 84.2078 128.74 84.2929 128.73 84.3768Z" fill="black"/>
<path d="M129.914 83.288C129.914 83.2639 129.918 83.2401 129.928 83.2179C129.937 83.1957 129.951 83.1756 129.968 83.1589C129.986 83.1422 130.006 83.1291 130.029 83.1204C130.051 83.1117 130.075 83.1077 130.099 83.1085C130.145 83.1085 130.189 83.1268 130.222 83.1593C130.254 83.1918 130.273 83.236 130.273 83.282C130.273 83.328 130.254 83.3721 130.222 83.4047C130.189 83.4372 130.145 83.4555 130.099 83.4555C130.076 83.4571 130.052 83.454 130.03 83.4464C130.008 83.4388 129.988 83.4268 129.971 83.4112C129.953 83.3955 129.939 83.3766 129.93 83.3554C129.92 83.3342 129.914 83.3113 129.914 83.288ZM129.961 83.7427H130.231V85.2085H129.961V83.7427Z" fill="black"/>
<path d="M98.1087 90.5153L97.1275 90.8922L98.1087 91.2751V91.5025L96.8643 91.0119V90.7726L98.1087 90.282V90.5153Z" fill="black"/>
<path d="M99.1316 89.528H99.3769L98.4376 92.1544H98.1982L99.1316 89.528Z" fill="black"/>
<path d="M101.232 91.3408C101.232 91.6758 100.98 91.8673 100.49 91.8673H99.5625V89.9229H100.43C100.879 89.9229 101.13 90.1083 101.13 90.4254C101.134 90.5152 101.111 90.604 101.064 90.6807C101.017 90.7574 100.948 90.8184 100.867 90.8562C100.975 90.8813 101.071 90.9436 101.137 91.0322C101.204 91.1208 101.237 91.23 101.232 91.3408ZM99.8377 90.1442V90.7425H100.436C100.723 90.7425 100.885 90.6408 100.885 90.4314C100.885 90.222 100.723 90.1203 100.436 90.1203L99.8377 90.1442ZM100.951 91.3408C100.951 91.1194 100.783 91.0177 100.478 91.0177H99.8377V91.6639H100.478C100.783 91.6399 100.951 91.5562 100.951 91.3169V91.3408Z" fill="black"/>
<path d="M101.501 90.8922C101.492 90.6859 101.546 90.4819 101.655 90.3062C101.763 90.1306 101.922 89.9914 102.11 89.9066C102.298 89.8218 102.507 89.7953 102.711 89.8304C102.914 89.8654 103.103 89.9606 103.252 90.1035C103.401 90.2465 103.503 90.4307 103.547 90.6325C103.59 90.8344 103.572 91.0446 103.496 91.2362C103.419 91.4277 103.286 91.5919 103.115 91.7076C102.944 91.8233 102.742 91.8852 102.536 91.8854C102.402 91.8919 102.268 91.871 102.142 91.8239C102.016 91.7769 101.901 91.7046 101.805 91.6117C101.708 91.5187 101.631 91.407 101.579 91.2833C101.526 91.1596 101.5 91.0265 101.501 90.8922ZM103.296 90.8922C103.297 90.7429 103.254 90.5965 103.172 90.4718C103.089 90.347 102.972 90.2495 102.835 90.1915C102.697 90.1335 102.545 90.1178 102.399 90.1462C102.252 90.1746 102.117 90.2459 102.011 90.3511C101.905 90.4563 101.833 90.5906 101.803 90.737C101.773 90.8834 101.788 91.0352 101.845 91.1733C101.902 91.3114 101.998 91.4295 102.122 91.5126C102.247 91.5957 102.393 91.6401 102.542 91.6401C102.641 91.6426 102.739 91.6249 102.831 91.5882C102.923 91.5515 103.006 91.4965 103.076 91.4265C103.146 91.3566 103.201 91.2732 103.238 91.1813C103.275 91.0895 103.292 90.9911 103.29 90.8922H103.296Z" fill="black"/>
<path d="M103.99 89.923H104.81C104.944 89.9125 105.079 89.9298 105.206 89.9739C105.333 90.018 105.45 90.0879 105.548 90.1792C105.647 90.2705 105.726 90.3813 105.78 90.5045C105.834 90.6277 105.861 90.7608 105.861 90.8953C105.861 91.0298 105.834 91.1628 105.78 91.286C105.726 91.4093 105.647 91.52 105.548 91.6113C105.45 91.7026 105.333 91.7725 105.206 91.8166C105.079 91.8607 104.944 91.878 104.81 91.8675H103.99V89.923ZM104.792 91.6222C104.986 91.6222 105.171 91.5453 105.308 91.4084C105.445 91.2715 105.522 91.0858 105.522 90.8923C105.522 90.6987 105.445 90.513 105.308 90.3761C105.171 90.2393 104.986 90.1623 104.792 90.1623H104.265V91.6222H104.792Z" fill="black"/>
<path d="M106.939 91.1912V91.8673H106.664V91.1852L105.892 89.9229H106.191L106.79 90.9459L107.388 89.9229H107.663L106.939 91.1912Z" fill="black"/>
<path d="M109.129 90.7726V91.0119L107.885 91.5025V91.2751L108.872 90.8922L107.885 90.5153V90.282L109.129 90.7726Z" fill="black"/>
<path d="M172.751 38.5238C172.751 38.6136 153.552 38.6794 129.872 38.6794C106.191 38.6794 86.9863 38.6136 86.9863 38.5238C86.9863 38.4341 106.18 38.3683 129.872 38.3683C153.564 38.3683 172.751 38.4401 172.751 38.5238Z" fill="#263238"/>
<path d="M89.5535 35.4606C89.5535 35.5694 89.5212 35.6759 89.4607 35.7664C89.4003 35.8569 89.3143 35.9274 89.2137 35.9691C89.1131 36.0108 89.0025 36.0217 88.8957 36.0004C88.7889 35.9792 88.6908 35.9268 88.6139 35.8498C88.5369 35.7728 88.4844 35.6747 88.4632 35.568C88.442 35.4612 88.4529 35.3505 88.4945 35.2499C88.5362 35.1494 88.6067 35.0634 88.6973 35.0029C88.7878 34.9424 88.8942 34.9102 89.0031 34.9102C89.1486 34.9117 89.2877 34.9702 89.3906 35.0731C89.4934 35.176 89.5519 35.3151 89.5535 35.4606Z" fill="#263238"/>
<path d="M91.1207 36.011C91.4247 36.011 91.6712 35.7646 91.6712 35.4606C91.6712 35.1566 91.4247 34.9102 91.1207 34.9102C90.8167 34.9102 90.5703 35.1566 90.5703 35.4606C90.5703 35.7646 90.8167 36.011 91.1207 36.011Z" fill="#263238"/>
<path d="M93.7954 35.4606C93.7966 35.5712 93.7648 35.6796 93.7041 35.772C93.6435 35.8644 93.5566 35.9366 93.4547 35.9795C93.3528 36.0223 93.2404 36.0338 93.132 36.0126C93.0235 35.9913 92.9238 35.9382 92.8456 35.86C92.7674 35.7818 92.7143 35.6821 92.693 35.5737C92.6717 35.4652 92.6833 35.3528 92.7261 35.2509C92.769 35.149 92.8412 35.0621 92.9336 35.0015C93.026 34.9408 93.1344 34.909 93.245 34.9102C93.3905 34.9117 93.5296 34.9702 93.6325 35.0731C93.7354 35.176 93.7938 35.3151 93.7954 35.4606Z" fill="#263238"/>
<path d="M92.4549 103.391C92.3711 103.391 92.2993 88.8341 92.2993 70.8854C92.2993 52.9367 92.3711 38.3743 92.4549 38.3743C92.5386 38.3743 92.6104 52.9247 92.6104 70.8854C92.6104 88.8461 92.5147 103.391 92.4549 103.391Z" fill="#E0E0E0"/>
<path d="M7.77245 -24.6437H-27.6763V0.628119H7.77245V-24.6437Z" fill="#FF725E"/>
<path d="M96.0743 6.77256C96.0649 6.17179 96.178 5.5754 96.4065 5.01972C96.6351 4.46405 96.9743 3.9607 97.4036 3.54034C97.833 3.11999 98.3433 2.79141 98.9037 2.57463C99.4641 2.35785 100.063 2.2574 100.663 2.27939C101.243 2.25195 101.822 2.34402 102.364 2.54987C102.906 2.75572 103.401 3.07096 103.816 3.47597L103.409 3.89478C103.051 3.54555 102.625 3.27268 102.159 3.09271C101.692 2.91274 101.193 2.82941 100.693 2.84777C100.164 2.81842 99.635 2.89725 99.1376 3.07942C98.6403 3.2616 98.1853 3.5433 97.8006 3.9073C97.4158 4.2713 97.1093 4.70995 96.8999 5.19643C96.6904 5.68291 96.5824 6.207 96.5824 6.73666C96.5824 7.26631 96.6904 7.7904 96.8999 8.27689C97.1093 8.76337 97.4158 9.20201 97.8006 9.56601C98.1853 9.93001 98.6403 10.2117 99.1376 10.3939C99.635 10.5761 100.164 10.6549 100.693 10.6255C101.194 10.6409 101.693 10.5544 102.16 10.3713C102.627 10.1883 103.052 9.91248 103.409 9.56059L103.816 9.97939C103.404 10.3914 102.911 10.7139 102.369 10.927C101.826 11.1401 101.246 11.2391 100.663 11.2179C100.067 11.2405 99.4716 11.1421 98.9141 10.9285C98.3565 10.715 97.8481 10.3907 97.4193 9.97533C96.9904 9.55994 96.6502 9.06201 96.4191 8.51157C96.1879 7.96112 96.0706 7.36956 96.0743 6.77256Z" fill="#FF725E"/>
<path d="M105.019 10.0573L105.306 9.57871C106.102 10.3081 107.146 10.7062 108.226 10.6915C110.021 10.6915 110.781 9.91973 110.781 8.95648C110.781 6.30007 105.258 7.89751 105.258 4.63683C105.258 3.38042 106.216 2.27956 108.393 2.27956C109.343 2.27224 110.273 2.55165 111.062 3.08127L110.822 3.5958C110.103 3.11562 109.258 2.85762 108.393 2.85392C106.67 2.85392 105.905 3.64964 105.905 4.64879C105.905 7.3052 111.427 5.73768 111.427 8.9505C111.427 10.2009 110.428 11.2898 108.238 11.2898C107.045 11.3186 105.888 10.8758 105.019 10.0573Z" fill="#FF725E"/>
<path d="M112.725 10.0573L113.018 9.57865C113.813 10.3091 114.858 10.7073 115.938 10.6915C117.733 10.6915 118.493 9.91967 118.493 8.95642C118.493 6.30001 112.97 7.89745 112.97 4.63676C112.97 3.38035 113.928 2.2795 116.105 2.2795C117.055 2.27402 117.984 2.55328 118.774 3.08121L118.534 3.59574C117.815 3.11556 116.97 2.85756 116.105 2.85386C114.382 2.85386 113.611 3.64958 113.611 4.64873C113.611 7.30514 119.139 5.73762 119.139 8.95044C119.139 10.2009 118.14 11.2898 115.95 11.2898C114.755 11.3175 113.597 10.8749 112.725 10.0573Z" fill="#FF725E"/>
<path d="M126.671 18.2775C126.671 18.2775 126.671 18.116 126.671 17.8108C126.671 17.5057 126.671 17.045 126.671 16.4587C126.671 15.2621 126.671 13.545 126.636 11.3373C126.636 6.91596 126.6 0.568093 126.576 -7.20968L126.695 -7.08404H87.2799L87.4355 -7.2396C87.4355 1.80656 87.4355 10.416 87.4355 18.2236L87.2919 18.0801L115.651 18.1519L123.782 18.1878H125.953H126.516H125.971H123.83L115.729 18.2236L87.274 18.2954H87.1304V18.1519C87.1304 10.3741 87.1304 1.73476 87.1304 -7.31139V-7.34131H87.2919L126.707 -7.30541H126.833V-7.16182C126.833 0.615958 126.785 6.99972 126.767 11.439C126.767 13.6348 126.767 15.3519 126.737 16.5365C126.737 17.1348 126.737 17.5476 126.737 17.8587C126.737 18.1698 126.671 18.2775 126.671 18.2775Z" fill="#FF725E"/>
<path d="M12.8104 105.317L28.4377 158.044C28.7755 159.185 29.4729 160.187 30.4259 160.899C31.3789 161.612 32.5366 161.998 33.7266 161.999L97.1455 162.173C97.9431 162.174 98.7327 162.014 99.4661 161.7C100.2 161.387 100.861 160.927 101.411 160.349C101.961 159.771 102.387 159.088 102.664 158.339C102.941 157.591 103.062 156.795 103.021 155.998C102.94 154.499 102.287 153.088 101.198 152.056C100.108 151.023 98.6645 150.447 97.1634 150.446H72.9147L53.4942 96.3427H19.4993C18.4119 96.3419 17.3394 96.5953 16.3673 97.0826C15.3953 97.57 14.5506 98.2779 13.9008 99.1498C13.2509 100.022 12.8139 101.033 12.6246 102.104C12.4353 103.175 12.4989 104.275 12.8104 105.317Z" fill="#455A64"/>
<path d="M17.4771 98.0058C17.5908 97.9699 21.9105 110.6 27.1216 126.221C32.3327 141.843 36.4549 154.538 36.3413 154.574C36.2276 154.61 31.9079 142.01 26.6968 126.359C21.4857 110.708 17.3575 98.0477 17.4771 98.0058Z" fill="#263238"/>
<path d="M34.8091 84.2332L40.7621 113.974L39.6971 136.261L79.7108 129.608L78.1433 110.103L78.0954 93.9495L87.9074 112.963L95.5416 98.2033L81.5595 72.8657C79.0138 70.2051 75.8811 68.1768 72.4117 66.9426C70.5683 66.2785 68.6323 65.907 66.6741 65.8418C62.1675 67.2685 57.3302 67.2685 52.8236 65.8418C52.2612 65.9136 51.4834 65.9914 50.4963 66.105H50.3168C46.2012 66.627 42.3999 68.5786 39.5773 71.6188C36.7547 74.6591 35.0903 78.5946 34.8749 82.7375L34.8091 84.2332Z" fill="#FF725E"/>
<path d="M50.5087 66.111C50.5087 66.111 34.0677 66.2366 32.0335 83.599L31.7583 96.3426L45.9139 96.2229L50.5087 66.111Z" fill="#FF725E"/>
<path d="M89.7868 88.4453C89.7868 88.5709 76.8518 88.6726 60.8954 88.6726C44.9389 88.6726 32.0278 88.5649 32.0278 88.4453C32.0278 88.3256 44.9569 88.2239 60.9193 88.2239C76.8817 88.2239 89.7868 88.3256 89.7868 88.4453Z" fill="#FAFAFA"/>
<path d="M89.7863 91.2032C89.7863 91.3228 76.8513 91.4245 60.8949 91.4245C44.9385 91.4245 32.0034 91.3228 32.0034 91.2032C32.0034 91.0835 44.9325 90.9758 60.8949 90.9758C76.8573 90.9758 89.7863 91.0775 89.7863 91.2032Z" fill="#FAFAFA"/>
<path d="M88.8654 86.1717C88.8654 86.2973 76.1398 86.399 60.4407 86.399C44.7415 86.399 32.0278 86.2913 32.0278 86.1717C32.0278 86.052 44.7535 85.9503 60.4586 85.9503C76.1637 85.9503 88.8654 86.046 88.8654 86.1717Z" fill="#FAFAFA"/>
<path d="M77.8984 112.957C77.7728 112.957 77.8266 105.915 78.0181 97.2403C78.2095 88.5651 78.4668 81.5292 78.5865 81.5292C78.7061 81.5292 78.6583 88.5711 78.4668 97.2463C78.2754 105.921 78.0181 112.957 77.8984 112.957Z" fill="#263238"/>
<path d="M72.2748 101.542C72.2748 101.542 80.0526 102.098 81.4526 104.156C82.8526 106.214 84.9885 112.072 84.1808 112.114C83.6779 112.132 83.1838 111.978 82.7808 111.677L80.6509 107.896C80.6509 107.896 80.9919 111.545 79.7176 111.617C78.4432 111.689 72.1133 112.957 72.1133 112.957L72.2748 101.542Z" fill="#FFBE9D"/>
<path d="M31.7643 92.9443L31.7344 112.993C31.794 114.094 32.0922 115.17 32.6083 116.145C33.1244 117.119 33.846 117.97 34.7233 118.639C35.6007 119.308 36.6128 119.777 37.6896 120.016C38.7664 120.255 39.8823 120.258 40.96 120.023L72.3164 113.561L72.2506 100.704L45.1899 105.915L44.831 92.3041L31.7643 92.9443Z" fill="#FF725E"/>
<path d="M49.6527 118.413C49.7871 118.365 49.9252 118.327 50.0656 118.3L51.2621 118.025L55.869 117.049L72.2083 113.693L72.0468 113.884C72.0468 109.852 72.0468 105.389 72.0468 100.68L72.31 100.901L66.7938 101.96L45.2553 106.059L45.022 106.107V105.915C45.2254 99.9322 45.3989 94.9784 45.5186 91.4604C45.5903 89.7493 45.6442 88.3912 45.6861 87.422C45.6861 86.9852 45.728 86.6322 45.7459 86.363C45.7459 86.2402 45.76 86.1177 45.7878 85.998C45.7955 86.1196 45.7955 86.2415 45.7878 86.363C45.7878 86.6382 45.7878 86.9613 45.7878 87.428C45.7878 88.3972 45.7519 89.7553 45.728 91.4664C45.6442 94.9904 45.5305 99.9562 45.3929 105.921L45.1656 105.736L66.704 101.548L72.2203 100.495L72.4835 100.441V100.71C72.4835 105.419 72.4835 109.882 72.4835 113.914V114.082L72.322 114.112L55.9587 117.283L51.328 118.15L50.1015 118.366C49.9541 118.398 49.8036 118.414 49.6527 118.413Z" fill="#263238"/>
<path d="M67.638 66.111C67.638 66.111 67.6978 66.2067 67.7636 66.4041C67.8677 66.6927 67.9497 66.9887 68.0089 67.2896C68.2261 68.4104 68.1748 69.5667 67.8594 70.664C67.3737 72.2913 66.4309 73.7449 65.1431 74.852C63.5756 76.257 61.5405 77.0271 59.4354 77.0118C58.3892 77.029 57.3503 76.8349 56.3809 76.4412C55.4115 76.0475 54.5315 75.4622 53.7936 74.7204C52.6217 73.4731 51.885 71.88 51.6936 70.1793C51.5529 69.0451 51.6884 67.8936 52.0884 66.8229C52.1944 66.5351 52.3287 66.2586 52.4893 65.9973C52.597 65.8178 52.6568 65.7281 52.6748 65.734C52.6927 65.74 52.4833 66.1349 52.25 66.8828C51.9325 67.9369 51.8487 69.0476 52.0047 70.1375C52.2312 71.7522 52.9596 73.2549 54.0867 74.4332C54.7918 75.1262 55.628 75.6715 56.5464 76.0372C57.4649 76.4029 58.447 76.5817 59.4354 76.5631C61.4321 76.5793 63.3653 75.8618 64.8679 74.5469C66.1198 73.4961 67.0524 72.1158 67.5602 70.5623C67.8874 69.5102 67.9813 68.3996 67.8354 67.3076C67.7337 66.5417 67.5901 66.1229 67.638 66.111Z" fill="#263238"/>
<path d="M69.1518 114.626C69.0822 113.968 69.0822 113.304 69.1518 112.646C69.1996 111.449 69.2595 109.75 69.2714 107.896C69.2834 106.041 69.2714 104.36 69.2056 103.139C69.1382 102.481 69.1382 101.817 69.2056 101.159C69.3875 101.798 69.488 102.457 69.5048 103.121C69.6184 104.318 69.7082 106.029 69.6962 107.908C69.6843 109.786 69.5766 111.461 69.4509 112.694C69.4295 113.348 69.3291 113.997 69.1518 114.626Z" fill="#FAFAFA"/>
<path d="M67.5303 114.955C67.4464 114.303 67.4283 113.643 67.4765 112.987C67.4765 111.605 67.5064 109.996 67.5244 108.267V103.522C67.4786 102.867 67.5026 102.209 67.5962 101.56C67.758 102.197 67.8404 102.852 67.8415 103.51C67.9192 104.707 67.985 106.4 67.9731 108.249C67.9611 110.097 67.8893 111.773 67.7936 112.987C67.7867 113.651 67.6983 114.313 67.5303 114.955Z" fill="#FAFAFA"/>
<path d="M111.116 126.76C95.9013 128.333 75.7329 130.403 75.7329 130.403L78.485 155.167C78.485 155.167 108.112 147.335 107.903 147.987C107.694 148.639 109.279 200.673 109.279 200.673H127.12L127.455 141.723C127.486 139.63 127.074 137.554 126.245 135.632C125.416 133.71 124.19 131.986 122.646 130.572C121.102 129.158 119.277 128.088 117.289 127.431C115.302 126.773 113.198 126.545 111.116 126.76Z" fill="#263238"/>
<path d="M39.333 136.751V144.427C39.333 149.656 45.286 155.196 50.5091 155.196H54.5535C57.7364 155.196 62.7262 152.875 65.3227 151.008L66.8663 149.878L85.4493 207.439C85.4493 207.439 106.707 203.628 106.707 202.958C106.707 202.288 92.3116 155.813 85.6646 134.244C82.9484 125.437 73.5134 120.316 64.7963 123.302C64.5031 123.403 64.198 123.517 63.9048 123.637C54.3561 127.454 39.333 136.751 39.333 136.751Z" fill="#263238"/>
<path d="M106.682 202.952C106.645 202.888 106.615 202.819 106.593 202.749C106.527 202.587 106.449 202.384 106.353 202.15C106.15 201.606 105.857 200.804 105.51 199.757C104.798 197.681 103.823 194.648 102.638 190.897C100.245 183.4 97.0858 173.008 93.6277 161.52C91.9046 155.771 90.2713 150.297 88.7755 145.307C88.0336 142.818 87.3336 140.449 86.6755 138.229C86.3405 137.12 86.0214 136.053 85.7183 135.028C85.4484 134.04 85.1248 133.067 84.749 132.115C84.0758 130.494 83.0545 129.042 81.7576 127.861C80.7736 126.965 79.7214 126.146 78.6106 125.414C77.7012 124.815 76.9772 124.355 76.4807 124.056L75.9242 123.703C75.8561 123.668 75.7935 123.624 75.7388 123.571C75.8109 123.593 75.8795 123.625 75.9422 123.667L76.5405 123.978C77.049 124.253 77.7909 124.678 78.7183 125.27C79.8566 125.976 80.9334 126.776 81.9371 127.663C83.2861 128.848 84.3531 130.32 85.0601 131.971C85.4489 132.931 85.7845 133.912 86.0653 134.909C86.3824 135.932 86.7054 137.003 87.0465 138.109L89.1884 145.169C90.6901 150.153 92.3413 155.627 94.0764 161.371C97.5345 172.84 100.658 183.226 102.955 190.789L105.695 199.685L106.461 202.079C106.539 202.336 106.599 202.539 106.652 202.707C106.706 202.874 106.694 202.952 106.682 202.952Z" fill="#455A64"/>
<path d="M62.8218 117.636L123.638 118.222L134.982 86.1656L90.744 86.4648L80.4773 115.29L62.8218 115.56V117.636Z" fill="#455A64"/>
<path d="M108.931 104.958C108.448 104.89 107.996 104.681 107.632 104.356C107.268 104.032 107.009 103.606 106.887 103.134C106.765 102.662 106.785 102.164 106.946 101.704C107.107 101.243 107.401 100.841 107.791 100.547C108.18 100.254 108.648 100.083 109.135 100.056C109.622 100.028 110.107 100.146 110.526 100.394C110.946 100.642 111.283 101.009 111.495 101.449C111.706 101.889 111.782 102.381 111.713 102.864C111.622 103.51 111.277 104.094 110.755 104.486C110.234 104.879 109.578 105.048 108.931 104.958Z" fill="white"/>
<path d="M57.8557 30.8717C58.454 28.7358 60.0395 27.6888 62.1275 26.9768C63.179 26.627 64.2995 26.5368 65.3934 26.7139C66.4873 26.891 67.5221 27.3302 68.4095 27.9939C69.6061 28.8913 70.5036 30.1896 71.9036 30.6743C74.201 31.47 76.8933 29.7529 79.083 30.7819C79.7492 31.0852 80.2882 31.6119 80.6068 32.2709C80.9253 32.9299 81.0032 33.6795 80.827 34.3899C80.6509 35.1003 80.2317 35.7267 79.6422 36.1604C79.0526 36.5942 78.3299 36.808 77.5993 36.7649C79.095 37.3153 79.5617 39.4512 78.6882 40.7854C77.8147 42.1196 76.0138 42.6221 74.4403 42.329C72.8815 41.949 71.4562 41.1505 70.3181 40.0196C69.1215 38.9546 68.0685 37.7461 66.8001 36.7768C65.5692 35.7352 64.0092 35.1629 62.3967 35.1614C60.2369 35.2751 58.3882 36.9025 57.4249 38.8409C56.4617 40.7794 56.2283 42.9811 56.1207 45.1409C56.013 47.3008 55.9651 49.4905 55.3249 51.5546C55.2471 51.7999 55.1335 52.0691 54.8942 52.1529C54.5412 52.2606 54.242 51.8896 54.0685 51.5546C52.1017 47.8987 50.8718 43.8921 50.4489 39.7623C50.2036 37.3691 50.2634 35.1076 51.5796 33.0914C52.8959 31.0751 56.2164 29.5973 57.8437 30.8717" fill="#263238"/>
<path d="M53.6856 40.881L52.5788 65.0878C52.3933 69.204 52.9617 75.2946 59.4831 75.2946C65.1429 74.8639 66.8121 69.575 66.9856 65.722C67.0634 63.9271 67.1352 62.3835 67.1591 62.198C67.1591 62.198 73.3455 61.8989 74.0694 55.8203C74.4164 52.8827 74.6677 46.7681 74.7873 41.2399C74.8581 38.38 73.8519 35.5978 71.9681 33.4447C70.0843 31.2916 67.4604 29.9248 64.6164 29.6151L64.0181 29.5553C57.6343 29.2621 53.8113 34.5032 53.6856 40.881Z" fill="#FFBE9D"/>
<path d="M67.1769 62.1205C64.3612 61.8753 61.6825 60.7963 59.4829 59.0214C59.4829 59.0214 60.8889 63.5983 67.0214 63.7L67.1769 62.1205Z" fill="#EB996E"/>
<path d="M72.5798 45.1409C72.5585 45.3685 72.4489 45.5787 72.2744 45.7263C72.0999 45.8739 71.8745 45.9473 71.6465 45.9307C71.5352 45.9276 71.4256 45.9023 71.3242 45.8561C71.2229 45.8099 71.1318 45.7439 71.0565 45.6619C70.9812 45.5798 70.9231 45.4835 70.8857 45.3786C70.8483 45.2737 70.8323 45.1624 70.8388 45.0512C70.8601 44.8247 70.9689 44.6155 71.1421 44.468C71.3153 44.3205 71.5392 44.2464 71.7662 44.2614C71.878 44.2637 71.9882 44.2884 72.0903 44.3343C72.1923 44.3801 72.2841 44.446 72.36 44.5281C72.436 44.6102 72.4946 44.7068 72.5324 44.8121C72.5701 44.9174 72.5863 45.0292 72.5798 45.1409Z" fill="#263238"/>
<path d="M73.1596 44.0998C73.04 44.2015 72.4357 43.6451 71.4964 43.5494C70.5571 43.4536 69.8272 43.8485 69.7374 43.7229C69.6477 43.5972 69.8272 43.4716 70.1502 43.2861C70.585 43.0491 71.0819 42.9509 71.5742 43.0049C72.0619 43.0591 72.5192 43.2689 72.8784 43.6032C73.1417 43.8425 73.2195 44.0579 73.1596 44.0998Z" fill="#263238"/>
<path d="M63.3718 44.4829C63.3505 44.7105 63.2408 44.9206 63.0664 45.0682C62.8919 45.2159 62.6665 45.2893 62.4385 45.2726C62.3272 45.2688 62.2177 45.2429 62.1164 45.1965C62.0151 45.1502 61.924 45.0842 61.8484 45.0024C61.7727 44.9207 61.714 44.8247 61.6757 44.7201C61.6373 44.6156 61.62 44.5044 61.6248 44.3931C61.649 44.1667 61.7595 43.9584 61.9333 43.8113C62.1071 43.6643 62.3309 43.5898 62.5581 43.6034C62.6697 43.6064 62.7796 43.6318 62.8812 43.6779C62.9829 43.724 63.0743 43.7899 63.1501 43.8719C63.2259 43.9538 63.2846 44.0501 63.3226 44.155C63.3607 44.2599 63.3774 44.3714 63.3718 44.4829Z" fill="#263238"/>
<path d="M63.9463 43.2982C63.8266 43.3999 63.2223 42.8435 62.283 42.7418C61.3437 42.64 60.6138 43.0409 60.524 42.9153C60.4343 42.7896 60.6138 42.67 60.9369 42.4845C61.3709 42.2456 61.8685 42.1474 62.3608 42.2033C62.8477 42.2604 63.3042 42.4698 63.6651 42.8016C63.9283 43.0349 64.0061 43.2503 63.9463 43.2982Z" fill="#263238"/>
<path d="M66.603 50.5973C67.1126 50.4937 67.6334 50.4556 68.1526 50.4836C68.3979 50.4836 68.6253 50.4836 68.6851 50.3042C68.7287 50.0579 68.6996 49.8042 68.6013 49.5742C68.4338 48.976 68.2663 48.3418 68.0868 47.6836C67.3808 44.9913 66.8902 42.7836 67.0039 42.7537C67.1176 42.7238 67.7757 44.8896 68.4817 47.5819C68.6492 48.246 68.8107 48.8802 68.9603 49.4845C69.075 49.7912 69.075 50.1291 68.9603 50.4358C68.9179 50.5166 68.8576 50.5867 68.784 50.6406C68.7103 50.6945 68.6254 50.7309 68.5355 50.7469C68.3985 50.7643 68.2597 50.7643 68.1227 50.7469C67.612 50.758 67.1018 50.7078 66.603 50.5973Z" fill="#263238"/>
<path d="M63.7847 50.9504C63.9343 50.9504 63.8326 51.9735 64.6223 52.7871C65.4121 53.6008 66.5069 53.6008 66.501 53.7444C66.495 53.888 66.2377 53.9179 65.777 53.882C65.1812 53.8243 64.6245 53.5597 64.2035 53.1341C63.8012 52.7254 63.5737 52.1761 63.5693 51.6025C63.5753 51.1777 63.7369 50.9384 63.7847 50.9504Z" fill="#263238"/>
<path d="M64.5809 39.6544C64.4612 39.8997 63.5399 39.6544 62.4271 39.6963C61.3142 39.7382 60.3989 39.9177 60.2732 39.6963C60.2253 39.5826 60.4048 39.3613 60.7877 39.1519C61.2976 38.9002 61.8585 38.7693 62.4271 38.7693C62.9956 38.7693 63.5565 38.9002 64.0664 39.1519C64.4493 39.3194 64.6347 39.5408 64.5809 39.6544Z" fill="#263238"/>
<path d="M73.1059 41.3597C72.9205 41.5512 72.2983 41.264 71.5265 41.1683C70.7547 41.0726 70.0786 41.1683 69.953 40.923C69.8931 40.8093 70.0188 40.6059 70.3299 40.4324C70.7388 40.2289 71.2003 40.1558 71.6521 40.223C72.0993 40.2831 72.5171 40.4794 72.8487 40.7854C73.1239 41.0307 73.1897 41.264 73.1059 41.3597Z" fill="#263238"/>
<path d="M53.704 45.4401C53.6022 45.3863 49.6535 43.7589 49.3424 47.935C49.0313 52.1111 53.2911 51.5606 53.3031 51.441C53.3151 51.3213 53.704 45.4401 53.704 45.4401Z" fill="#FFBE9D"/>
<path d="M52.1483 49.7657C52.1483 49.7657 52.0705 49.8136 51.9449 49.8614C51.766 49.9192 51.572 49.9085 51.4005 49.8315C51.1435 49.6392 50.9418 49.3825 50.8158 49.0873C50.6897 48.7921 50.6438 48.4689 50.6825 48.1503C50.6995 47.7927 50.7955 47.4433 50.9637 47.1272C51.0136 46.9984 51.0941 46.8836 51.1984 46.7929C51.3027 46.7022 51.4275 46.6383 51.562 46.6067C51.6471 46.5925 51.7346 46.6079 51.8097 46.6503C51.8848 46.6928 51.9431 46.7598 51.9748 46.8401C52.0227 46.9597 51.9748 47.0435 52.0107 47.0495C52.0466 47.0554 52.1064 46.9896 52.0885 46.8101C52.0725 46.7054 52.0194 46.6099 51.9389 46.5409C51.8856 46.4928 51.8232 46.4558 51.7554 46.4322C51.6876 46.4086 51.6157 46.3988 51.544 46.4033C51.3697 46.4262 51.204 46.4931 51.0627 46.5978C50.9214 46.7025 50.8091 46.8415 50.7364 47.0016C50.5345 47.3501 50.4196 47.742 50.4013 48.1443C50.3654 48.9879 50.7364 49.8076 51.3287 50.0289C51.4381 50.0689 51.5552 50.0837 51.6712 50.0723C51.7872 50.0609 51.8991 50.0236 51.9988 49.9631C52.1304 49.8674 52.1603 49.7717 52.1483 49.7657Z" fill="#EB996E"/>
<path d="M76.2109 40.1033C74.8261 40.304 73.4135 40.1739 72.0886 39.7236C70.7638 39.2733 69.5644 38.5157 68.5887 37.5127C67.2426 36.1007 66.2913 34.1742 64.4964 33.4024C63.8813 33.1674 63.2257 33.0564 62.5675 33.0759C61.9093 33.0954 61.2615 33.245 60.6614 33.5161C59.4627 34.0686 58.3913 34.863 57.5144 35.8494C58.358 39.0682 57.2033 42.4306 56.0605 45.5597C55.9683 45.9212 55.7577 46.2413 55.4622 46.4691C54.9297 46.7982 54.2238 46.4212 53.8409 45.9246C53.2923 45.0829 53.0012 44.0994 53.0032 43.0947C52.8026 40.8174 53.0589 38.5229 53.7571 36.346C54.4668 34.1659 55.7976 32.2404 57.5862 30.8058C59.9052 29.0932 62.8 28.3507 65.6571 28.7358C68.4988 29.1232 71.1455 30.3984 73.2195 32.3793C74.2237 33.2487 74.9949 34.3551 75.4631 35.5982" fill="#263238"/>
<path d="M36.1249 66.1349H-25.2598V108.29H36.1249V66.1349Z" fill="#263238"/>
<path d="M9.04611 102.541H0.687988V118.443H9.04611V102.541Z" fill="#263238"/>
<path d="M-19.1499 117.834V123.553H12.5236V208.786H15.4373V123.553L147.713 124.205V208.786H150.573V124.05L170.987 124.211V117.337L-19.1499 117.834Z" fill="#263238"/>
<path d="M1.1198 122.44L13.6061 131.432L12.5232 132.474L-0.0708008 122.991L1.1198 122.44Z" fill="#263238"/>
<path d="M59.6447 115.721H26.9062V118.133H59.6447V115.721Z" fill="#263238"/>
</g>
<rect x="0.5" y="0.5" width="129" height="129" rx="64.5" stroke="white"/>
</g>
<defs>
<filter id="filter0_i_116_4227" x="0" y="0" width="134" height="134" filterUnits="userSpaceOnUse" color-interpolation-filters="sRGB">
<feFlood flood-opacity="0" result="BackgroundImageFix"/>
<feBlend mode="normal" in="SourceGraphic" in2="BackgroundImageFix" result="shape"/>
<feColorMatrix in="SourceAlpha" type="matrix" values="0 0 0 0 0 0 0 0 0 0 0 0 0 0 0 0 0 0 127 0" result="hardAlpha"/>
<feOffset dx="4" dy="4"/>
<feGaussianBlur stdDeviation="7.5"/>
<feComposite in2="hardAlpha" operator="arithmetic" k2="-1" k3="1"/>
<feColorMatrix type="matrix" values="0 0 0 0 0 0 0 0 0 0 0 0 0 0 0 0 0 0 0.15 0"/>
<feBlend mode="normal" in2="shape" result="effect1_innerShadow_116_4227"/>
</filter>
<clipPath id="clip0_116_4227">
<rect width="130" height="130" rx="65" fill="white"/>
</clipPath>
</defs>
</svg>
